<svg xmlns="http://www.w3.org/2000/svg" viewBox="0 0 720 480">
  <path fill="red" d="M720 0H0v480h720V0z"/>
  <path id="a" d="M378 363q-9-8-9-19 2-11 6-2 8 20 20 13 8-7-1-8-11 0-16-15-1-8 6-2 11 12 22 9 9-6-1-8-11 0-20-12-3-9 5-5 9 12 22 5 7-7-2-9-9 2-25-9t-12-31 33 32l11-8 32 7-12 5q-9-4-11 5l-2 10 5-6q9 2 10-5l15-6 15 9q1 8 11 6l5 7-1-9q0-11-13-8l-10-6h18q6 4 12 0l8 2-7-7q-8-7-14 1h-19l12-8q7 2 11-5l8-1-11-3q-8-4-10 5l-15 10-31-8 9-10q-32-6-38-30c-3-8 3-10 5-5q2 13 13 18t3-7-6-13q2-8 8-2 6 26 19 28t6-9q-11-3-15-15t5-7q34 48 52 34t-4-12-39-31q-2-9 5-3 24 28 42 18t-6-9-37-20q-5-11 4-8 28 24 39 13t-2-11q-20 4-38-15-7-9 2-5 41 20 40-3c-6-12-15 16-44-10q-6-9 3-7 29 15 40-2t-8-7-33-1q-9-9 1-7 34 6 42-14 1-12-9-5-13 11-32 9-10-5-1-9 34-4 43-27-1-16-10-8-12 19-37 25-2-5-6-4-35 12-32 26t-10 15-11-14 17-24q32-6 31-11-12 5-16-1 26 1 29-7 1-9-5-2-5 7-21 6 8-10 14-3 2-11-14-8-3-10-24-2-9 4-20 4l9 7-16 12h9l-19 21v252q22-23 18-26zm31-264a6 3 0 1 1-2 0z"/>
  <use href="#a" transform="matrix(-1 0 0 1 720 0)"/>
</svg>