<svg xmlns="http://www.w3.org/2000/svg" viewBox="0 0 720 480">
  <path fill="#74acdf" d="M0 0h769v480H0z"/>
  <path fill="#fff" d="M0 160h768v160H0z"/>
  <marker id="a" markerHeight="50" markerWidth="20" orient="auto" refY="40">
    <path stroke="#85340a" fill="#f6b40e" d="M5 40 3 1A1 1 0 001 1L0 41m10 1c1-6-1-12 3-19s2-13 2-13c-1-6 3-6 2-8s-4 2-5 6 2 7-3 16c-4 7-2 11-4 17"/>
    <path fill="#85340a" d="m1 43L2 22l1 21h3c2-4 1-15 5-20-4 7-1 12-4 21"/>
  </marker>
  <path fill="none" marker-mid="url(#a)" d="m358 213 10 2 9 5 7 8 3 10-1 10-5 9-8 7-10 3-11-2-9-4-6-9-3-10 1-10 5-9 8-7ZZ"/>
  <circle cx="360" cy="240" r="30" fill="#f6b40e" stroke="#85340a"/>
  <path id="f" stroke="#85340a" fill="none" d="m360 256a4 4 0 014 3m-4-4c4 0 3-3 7-3h-7m0-2q3-2 7 2m-7-5q2 0 2-1a2 2 0 102-2q-4-4-2-12 8-5 15 2m-2 2q-6-6-12 0 3 5 11 2m-9-1q3-4 8-1-3 4-8 1m3-2a2 1.6 0 102 0"/>
  <use href="#f" transform="matrix(-1 0 0 1 720 0)"/>
</svg>