<svg xmlns="http://www.w3.org/2000/svg" fill="none" viewBox="0 0 720 480">
  <path fill="#009B3A" d="M0 0h720v479.4H0z"/>
  <circle cx="360" cy="240" r="130" fill="#002776"/>
  <path stroke="#fff" stroke-width="19" d="M233 201a287 287 0 0 1 255 73"/>
  <path fill="#fedf00" d="m61 240 299 191 299-191L360 50zm298 126a126 126 0 1 1 2 0"/>
  <path stroke="#009B3A" stroke-width="8" d="M250 198a287 287 0 0 1 69-1m15 2 6 1m18 3a287 287 0 0 1 118 60"/>
  <marker id="a" markerHeight="11" markerWidth="11">
    <path fill="#fff" d="M5.1 0 2 9.7l8.4-6H0l8.4 6z"/>
  </marker>
  <g marker-mid="url(#a)">
    <path d="M458 279h-16l6 12-8 10-23 16-25 3 1-124-24 71-15 25v-37l-51 47-14-24 17-38-59 37 15-12-11-53h-10"/>
    <path d="M461 282h1l-30 26-13-2v25l-14-21-21-3 7-77-33 105-7-58-7-9-57 23-9-32h-9"/>
  </g>
</svg>