<svg xmlns="http://www.w3.org/2000/svg" fill="#fff" viewBox="0 0 720 480">
  <path fill="#ffcd00" d="M0 0h720v480H0z"/>
  <path fill="#ff671f" d="M0 480h720V0z"/>
  <path d="m504 200q-69-18-65-52l-46-17q-11 12-12 32-14 14-12 30l21-15q28 34-5 35 63 40-21 11 1-11-16-26 9 22-30 17 1-15-21-18 29 19-45 38 50-5-19 44 52-6-3 34 36 6-38 25-29-14-50-2 35-2 45 10-18 0-46 13 23-4 37-4l-66 29 47-12t-58 37q35-7 61-24 57-39 34 0 92-89 90-9a24 32 0 1031 10q12-6 17 19 13-38-26-33-30-60 10-32a25 20 0 101-38q-1-12 14-12-20-17-36 16c-11-67 32-46 116-29q-11 40 65 47a30 30 0 1032-22q-4-10 16-14-19-12-45 17-61 0-21-46 2-47 22-35t52-9a30 30 0 10-3-19z"/>
  <path d="m616 112-49 5 30-18q-17-2-34 9l19-48q-12 20-18 26t-14 25q-56-22-65-14-35-31-60-24 23 1 46 24h-8q-12-15-32-18 19 8 26 19h-9q-28-28-40-11 13-10 31 12-29-20-47-11 22-3 44 13l-8 8c-54-24-77 11-47 8-24-11 17-14 39 1q-70 4-73 18 29-14 41 5 146 17 115 44 20-11 25 7 15-22-28-44c15-36 46 25 53-20z"/>
</svg>