<svg xmlns="http://www.w3.org/2000/svg" viewBox="0 0 720 480">
  <path fill="#ce1720" d="M0-1h720v481H0V-1z"/>
  <path fill="#007c30" d="M106.5 319.7H720V480H106.5V319.7z"/>
  <g transform="matrix(5 0 0 8 -2.5 0)">
    <g id="b">
      <path id="a" stroke="#fff" d="M1 0v1m0 1v2m0 1v2m0 1v3m0 1v2m0 2v3m0 2v2m0 1v1m0 2v4m1 0v-3m0-2v-4m0-5v-4m0-3V6m0-3V0m1 0v2m0 5v2m0 2v1m0 2v2m0 7v4m0 2v2m1-3v-4m0-9v-2m0-3V8m0-3V4m0-3V0m1 3v3m0 3v2m0 1v2m0 5v1m0 3v4m1 4v-2m0-3v-4m0-2v-1m0-6v-3m0-3V5m0-1V2m1 1v3m0 3v2m0 1v2m0 5v6m0 3v2m1 1v-3m0-4v-4m0-5v-2m0-3V8m0-3V4m0-3V0m1 0v2m0 5v2m0 2v1m0 2v2m0 5v2m0 4v4m1 0v-1m0-2v-2m0-9v-4m0-3V6m0-3V0m1 2v2m0 1v2m0 2v2m0 1v2m0 2v2m0 6v5"/>
      <use href="#a" transform="matrix(-1 0 0 1 22.5 0)"/>
    </g>
    <use href="#b" transform="rotate(180 11.25 30.5)"/>
  </g>
</svg>