<svg xmlns="http://www.w3.org/2000/svg" fill="#008" viewBox="0 0 720 480">
  <path fill="#f93" d="M0 0h720v480H0z"/>
  <path fill="#fff" d="M0 160h720v160H0z"/>
  <path fill="#128807" d="M0 320h720v160H0z"/>
  <circle cx="360" cy="240" r="64"/>
  <circle cx="360" cy="240" r="33.5" stroke="#fff" stroke-width="45"/>
  <marker id="a" markerHeight="48" markerWidth="15" orient="auto" refX="10" refY="3">
    <path d="m10 3 2 34-2 15-2-15zM0 4a2.8 2.8 0 1 0 0-1z"/>
  </marker>
  <path id="b" fill="none" marker-mid="url(#a)" d="M345.5 185.9 360 184l14.5 1.9 13.5 5.6 11.6 8.9 8.9 11.6 5.6 13.5L416 240l-1.9 14.5-5.6 13.5-8.9 11.6-11.6 8.9-13.5 5.6L360 296l-14.5-1.9"/>
  <use href="#b" transform="matrix(-1 0 0 1 720 0)"/>
  </svg>