<svg xmlns="http://www.w3.org/2000/svg" xml:space="preserve" viewBox="0 0 720 480">
  <path fill="#74acdf" d="M0 0h720v480H0z"/>
  <path fill="#fff" d="M0 160h720v160H0z"/>
  <path fill="#f4b31a" stroke="#84361b" stroke-width="1.1" d="m425.4 239.2-41.8-1.6c8-.4 12.8-5.2 20.4-4.5 8.1.7 12.7-3.7 15.8-4.7 3.1-1 5 1.1 5.5.2.4-.9-2-2.9-6.5-2.3-4.5.7-5.8 4.1-15.7 3.3-9-.7-11.7 3.2-19 3l36.7-16.8s1.1-.5.8-1.2c-.3-.8-1.5-.3-1.5-.3l-39.2 14.5c7.2-3.4 9.9-9.7 17.1-11.9 7.7-2.4 10.3-8.3 12.8-10.4 2.5-2.2 5.1-.9 5.1-1.9.1-1-3-1.9-6.9.4-3.9 2.3-3.8 6-13.2 9-8.6 2.8-9.6 7.5-16.4 10.1l27.4-29.6s.9-.9.3-1.5c-.6-.6-1.5.3-1.5.3L375 221.6c5.4-5.9 5.4-12.7 11.2-17.6 6.2-5.2 6.3-11.6 7.8-14.5 1.5-3 4.3-2.8 4-3.7-.3-1-3.5-.6-6.2 3s-1.2 7-8.8 13.4c-6.9 5.9-6 10.6-11.3 15.6l14-37.8s.5-1.1-.3-1.5c-.8-.3-1.2.8-1.2.8l-17.4 38c2.7-7.5.1-13.8 3.6-20.5 3.8-7.2 1.4-13.1 1.7-16.4.3-3.3 3-4.2 2.3-5-.7-.8-3.5.8-4.6 5.1-1.1 4.4 1.5 6.9-3 15.7-4.1 8.1-1.5 12.1-4.5 18.7l-1.5-40.3s0-1.2-.8-1.2-.8 1.2-.8 1.2l-1.6 41.8c-.4-8-5.2-12.8-4.5-20.4.7-8.1-3.7-12.7-4.7-15.8-1-3.1 1.1-5 .2-5.5-.9-.4-2.9 2-2.3 6.5.7 4.5 4.1 5.8 3.3 15.7-.7 9 3.2 11.7 3 19l-16.8-36.7s-.5-1.1-1.2-.8c-.8.3-.3 1.5-.3 1.5l14.5 39.2c-3.4-7.2-9.7-9.9-11.9-17.1-2.4-7.7-8.3-10.3-10.4-12.8-2.2-2.5-.9-5.1-1.9-5.1-1-.1-1.9 3 .4 6.9 2.3 3.9 6 3.8 9 13.2 2.8 8.6 7.5 9.6 10.1 16.4l-29.6-27.4s-.9-.9-1.5-.3c-.6.6.3 1.5.3 1.5l28.4 30.7c-5.9-5.4-12.7-5.4-17.6-11.2-5.2-6.2-11.6-6.3-14.5-7.8-3-1.5-2.8-4.3-3.7-4-1 .3-.6 3.5 3 6.2s7 1.2 13.4 8.8c5.9 6.9 10.6 6 15.6 11.3l-37.8-14s-1.1-.5-1.5.3c-.3.8.8 1.2.8 1.2l38 17.4c-7.5-2.7-13.8-.1-20.5-3.6-7.2-3.8-13.1-1.4-16.4-1.7-3.3-.3-4.2-3-5-2.3-.8.7.8 3.5 5.1 4.6 4.4 1.1 6.9-1.5 15.7 3 8.1 4.1 12.1 1.5 18.7 4.5l-40.3 1.5s-1.2 0-1.2.8 1.2.8 1.2.8l41.8 1.6c-8 .4-12.8 5.2-20.4 4.5-8.1-.7-12.7 3.7-15.8 4.7-3.1 1-5-1.1-5.5-.2-.4.9 2 2.9 6.5 2.3 4.5-.7 5.8-4.1 15.7-3.3 9 .7 11.7-3.2 19-3l-36.7 16.8s-1.1.5-.8 1.2c.3.8 1.5.3 1.5.3l39.2-14.5c-7.2 3.4-9.9 9.7-17.1 11.9-7.7 2.4-10.3 8.3-12.8 10.4-2.5 2.2-5.1.9-5.1 1.9-.1 1 3 1.9 6.9-.4 3.9-2.3 3.8-6 13.2-9 8.6-2.8 9.6-7.5 16.4-10.1l-27.4 29.6s-.9.9-.3 1.5c.6.6 1.5-.3 1.5-.3l30.7-28.4c-5.4 5.9-5.4 12.7-11.2 17.6-6.2 5.2-6.3 11.6-7.8 14.5-1.5 3-4.3 2.8-4 3.7.3 1 3.5.6 6.2-3s1.2-7 8.8-13.4c6.9-5.9 6-10.6 11.3-15.6l-14 37.8s-.5 1.1.3 1.5c.8.3 1.2-.8 1.2-.8l17.4-38c-2.7 7.5-.1 13.8-3.6 20.5-3.8 7.2-1.4 13.1-1.7 16.4-.3 3.3-3 4.2-2.3 5 .7.8 3.5-.8 4.6-5.1 1.1-4.4-1.5-6.9 3-15.7 4.1-8.1 1.5-12.1 4.5-18.7l1.5 40.3s0 1.2.8 1.2.8-1.2.8-1.2l1.6-41.8c.4 8 5.2 12.8 4.5 20.4-.7 8.1 3.7 12.7 4.7 15.8 1 3.1-1.1 5-.2 5.5.9.4 2.9-2 2.3-6.5-.7-4.5-4.1-5.8-3.3-15.7.7-9-3.2-11.7-3-19l16.8 36.7s.5 1.1 1.2.8c.8-.3.3-1.5.3-1.5l-14.5-39.2c3.4 7.2 9.7 9.9 11.9 17.1 2.4 7.7 8.3 10.3 10.4 12.8 2.2 2.5.9 5.1 1.9 5.1 1 .1 1.9-3-.4-6.9-2.3-3.9-6-3.8-9-13.2-2.8-8.6-7.5-9.6-10.1-16.4l29.6 27.4s.9.9 1.5.3c.6-.6-.3-1.5-.3-1.5L378.4 255c5.9 5.4 12.7 5.4 17.6 11.2 5.2 6.2 11.6 6.3 14.5 7.8 3 1.5 2.8 4.3 3.7 4 1-.3.6-3.5-3-6.2s-7-1.2-13.4-8.8c-5.9-6.9-10.6-6-15.6-11.3l37.8 14s1.1.5 1.5-.3c.3-.8-.8-1.2-.8-1.2l-38-17.4c7.5 2.7 13.8.1 20.5 3.6 7.2 3.8 13.1 1.4 16.4 1.7 3.3.3 4.2 3 5 2.3.8-.7-.8-3.5-5.1-4.6-4.4-1.1-6.9 1.5-15.7-3-8.1-4.1-12.1-1.5-18.7-4.5l40.3-1.5s1.2 0 1.2-.8c.1-.8-1.2-.8-1.2-.8zm-43.5-1.7-8-.3 8-3.7v4zM360 240zm19.3-10.7-7.5 2.8 6-6.5 1.5 3.7zm-5.6-6.5-5.9 5.5 3.1-8.3 2.8 2.8zm-7.6-4-3.3 7.3-.3-8.8 3.6 1.5zm-8.6-.7-.3 8-3.7-8h4zm-8.2 2.6 2.8 7.5-6.5-6 3.7-1.5zm-6.5 5.6 5.5 5.9-8.3-3.1 2.8-2.8zm-4 7.6 7.3 3.3-8.8.3 1.5-3.6zm-.7 8.6 8 .3-8 3.7v-4zm2.6 8.2 7.5-2.8-6 6.5-1.5-3.7zm5.6 6.5 5.9-5.5-3.1 8.3-2.8-2.8zm7.6 4 3.3-7.3.3 8.8-3.6-1.5zm8.6.7.3-8 3.7 8h-4zm8.2-2.6-2.8-7.5 6.5 6-3.7 1.5zm6.5-5.6-5.5-5.9 8.3 3.1-2.8 2.8zm4-7.6-7.3-3.3 8.8-.3-1.5 3.6z"/>
  <path fill="#84361b" d="M365.8 263.5c-.3 9.3 4.8 14.1 2.7 20.4 1-7.9-4-11.8-4.4-20.5l1.7.1zm-14.7 20.3c4.4-5 1.5-11.4 5.3-19.9l-1.5-.7c-3 8.2.1 13.7-3.8 20.6zm-4.7-24.3c-5.8 6.5-5.1 12.7-11.4 17.6 5.9-2.9 5.7-10 12.5-16.3l-1.1-1.3zm-6.5-6.7c-7.9 3.7-9.5 9.8-17.2 11.9 6.6-.4 9.1-7 17.8-10.3l-.6-1.6zm-3.4-7 .1-1.7c-8.7.4-12.5 5.4-20.5 4.4 6.3 2.2 11.1-3 20.4-2.7zm-20.3-14.7c5 4.4 11.4 1.5 19.9 5.3l.7-1.5c-8.2-3-13.7.1-20.6-3.8zm23-3.6 1.3-1.1c-6.5-5.8-12.7-5.1-17.6-11.4 3 5.9 10 5.7 16.3 12.5zm-3.9-24.8c.4 6.6 7 9.1 10.3 17.8l1.6-.6c-3.7-7.8-9.7-9.5-11.9-17.2zm20.6 13.9c-.4-8.7-5.4-12.5-4.4-20.5-2.1 6.3 3 11.1 2.7 20.4l1.7.1zm13-20.4c-4.4 5-1.5 11.4-5.3 19.9l1.5.7c3-8.2-.1-13.7 3.8-20.6zm4.7 24.3c5.8-6.5 5.1-12.7 11.4-17.6-5.9 2.9-5.7 10-12.5 16.3l1.1 1.3zm6.5 6.7c7.9-3.7 9.5-9.8 17.2-11.9-6.6.4-9.1 7-17.8 10.3l.6 1.6zm3.4 7-.1 1.7c8.7-.4 12.5-5.4 20.5-4.4-6.3-2.2-11.1 3-20.4 2.7zm-16.5 7.2 34.6 15.8-35.7-13.2 25.9 27.9-27.9-25.9 13.3 35.7-15.8-34.7-1.4 38-1.4-38-15.8 34.6 13.3-35.7-27.9 25.9 25.9-27.9-35.7 13.3 34.6-15.8-38-1.4 38-1.4-34.6-15.8 35.7 13.3-25.9-27.9 27.9 25.9-13.3-35.7 15.8 34.6 1.4-38 1.4 38 15.8-34.6-13.2 35.7 27.9-25.9-25.9 27.9 35.7-13.3-34.7 15.8 38 1.4-38 1.4zm-6.9-1.4-.1-.1.1.1zm23.1 5.1c8.2 2.9 13.6-.2 20.6 3.8-5-4.4-11.4-1.5-19.9-5.3l-.7 1.5zm-2.4 7.4-1.3 1.1c6.5 5.8 12.7 5.1 17.6 11.4-3-5.9-10-5.7-16.3-12.5zm3.9 24.8c-.4-6.6-7-9.1-10.3-17.8l-1.6.6c3.7 7.8 9.7 9.5 11.9 17.2z"/>
  <circle cx="360" cy="240" r="26.7" fill="#f6b40e" stroke="#85340a" stroke-width="1.4"/>
  <path d="M364.5 236.7c2.1 1.8 6.6 2 9.7-.2a7 7 0 0 0-5.1-2.2c-1.8 0-3.6.8-4.6 2.4zm8.2-.4c-.8.9-1.7 1.4-2.7 1.6.5-.3.9-.9.9-1.6 0-.6-.3-1.2-.8-1.5 1.3.2 2.4.9 2.6 1.5zm-4.8-1.4c-.4.3-.7.8-.7 1.4 0 .7.4 1.3 1 1.6-1-.1-2-.6-2.8-1.2.6-1 1.5-1.6 2.5-1.8zm7.7 1.6c-.4.2-2.5-2.9-6.2-2.9-1.2 0-2.5 0-3.7 1-1.2 1-2.1 1.4-2.5 1.6-.4.2-.6-.4-.4-.6.2-.2.8 0 2.1-1 1.2-1 1.8-1.6 4.5-1.6 4.1 0 6.6 3.3 6.2 3.5zm1.2-2.2c-4.7-4.1-10.7-4.7-13.9-1.6a8 8 0 0 0-1.5 3.4c-.4 2.3.3 4.9 2.1 7.4l-.8.4a15 15 0 0 1-1.7-9.4c.1-.8.4-1.6.6-2.3 4.5-3.7 10.7-4.1 15.2 2.1zm0 0zm-2.4 3.2c-3.5 2.7-7 2.5-9 1.2-2.1-1.2-2.1-1.6-1.6-1.6.4 0 .8.4 2.5 1.2 1.5.9 4 .9 8.1-.8zm-9.3 7.4c0-.5-.3-1-.8-1.2.9.2 1.5.9 1.5 1.8 0 1-.8 1.8-1.9 1.8-.6 0-1.2-.3-1.5-.8a4 4 0 0 1-2.2.6h-.2a4 4 0 0 1-2.2-.6c-.3.5-.9.8-1.5.8-1 0-1.9-.8-1.9-1.8 0-.9.6-1.7 1.5-1.8-.5.2-.8.6-.8 1.2 0 .7.5 1.2 1.2 1.2s1.2-.5 1.2-1.2c.2.4 1 1.6 2.5 1.6 1.6-.1 2.3-1.3 2.5-1.6 0 .7.6 1.2 1.2 1.2.9 0 1.4-.6 1.4-1.2zm-8.6 5.3c-1.4.8-2.2 1.6-3.3 2 1.8-1.2 2.7-3.1 4.7-3.1.4 0 1.2.2 2 .6.8-.4 1.6-.6 2-.6 2.1 0 2.9 1.9 4.7 3.1-1-.4-1.9-1.2-3.3-2s-2.7.2-3.5.2c-.7 0-1.9-1-3.3-.2zm3.5 1.6c-.8 0-1.4-.3-2.8-.2-.8 0-1.8.2-3.3.6h-.7c4.3.4 2.2 2.9 6.7 2.9s2.5-2.5 6.8-2.9h-.8c-3.9-1.2-4.7-.4-5.9-.4zm0 2.7c-3.5 0-2.4-2.3-6-2.3h-.1c3.6-.8 4.4.4 6 .4 1.6 0 2.4-1.2 6-.5-3.5.1-2.5 2.4-5.9 2.4zm-6-2.3zm9.7 6.7a3.8 3.8 0 0 0-3.7-2.9 3.8 3.8 0 0 0-3.7 2.9 3.7 3.7 0 1 1 7.4 0zm-20.3-24.6zm0 0c4.5-6.1 10.7-5.7 15.2-2a14.7 14.7 0 0 1-1.1 11.7l-.8-.4c1.8-2.6 2.6-5.1 2.1-7.4a7.4 7.4 0 0 0-1.5-3.4c-3.2-3.3-9.2-2.6-13.9 1.5zm7.4-.7c-3.7 0-5.7 3.1-6.2 2.9-.4-.2 2.1-3.5 6.2-3.5 2.7 0 3.3.6 4.5 1.6 1.2 1 1.8.8 2.1 1 .2.2 0 .8-.4.6-.4-.2-1.2-.6-2.5-1.6-1.2-1-2.5-1-3.7-1zm-4.7 3.1c1.1 1 2.9 1.5 4.8 1.4h.1c1.6-.1 3.4-.6 4.8-1.6a7 7 0 0 0-5.1-2.2c-1.8 0-3.6.8-4.6 2.4zm8.2-.4c-.7.7-1.4 1.2-2.2 1.4.4-.3.7-.9.7-1.4 0-.6-.3-1.1-.7-1.4 1.1.2 2 .8 2.2 1.4zm-4.4-1.5c-.5.3-.8.9-.8 1.5 0 .7.4 1.4 1.1 1.7a6 6 0 0 1-3.2-1.2 4 4 0 0 1 2.9-2zm5 4c-2.1 1.2-5.5 1.4-9-1.2 4.1 1.6 6.6 1.6 8.2.8 1.6-.8 2.1-1.2 2.5-1.2.4-.1.4.3-1.7 1.6z" class="st5"/>
  <path fill="#f6b40e" stroke="#85340a" stroke-width="1.1" d="M129.9-80.5c3.8-5.4 4.5-11.1 9.6-15.4 6.3-5.1 6.4-11.5 8-14.4 1.6-3 4.4-2.7 4-3.7-.3-1-3.5-.6-6.1 2.9-2.8 3.6-1.4 7-9 13.3-7 5.9-6 10.7-11.5 15.7l14.4-37.9s.5-1-.2-1.4-1.2.8-1.2.8l-16.7 35.4"/>
  <path d="M128.5-81.6c4-5.6 4.1-11 9.8-15.4-5.5 2.6-5.8 8.8-11 14.6m-3.4-1.7 6.6-17.3-7.8 16.8" class="st5"/>

<g id="pattern" transform="rotate(22.5 400,250)">
	<path fill="#000" d="M22.2,51.3c1.4-6.4-0.2-12,2.9-17.9
		c3.8-7.2,1.4-13.1,1.7-16.4c0.3-3.3,3-4.2,2.3-5c-0.7-0.8-3.5,0.8-4.6,5.1c-1.1,4.4,1.5,6.9-3,15.7C17.3,41,20.1,45.1,17,51.8
		l-1.5-40.5c0,0,0-1.2-0.8-1.2c-0.8,0-0.8,1.2-0.8,1.2l-1.5,39.1"/>
	<path id="ray2_00000115485220869078374720000011934489292771411845_" class="st5" d="M20.5,50.9c1.6-6.8-0.5-11.8,3-18
		c-4,4.5-1.9,10.3-4.4,17.7 M15.3,50.3l-0.7-18.5L14,50.3"/>
</g>
</svg>
