<svg xmlns="http://www.w3.org/2000/svg" viewBox="0 0 720 480" fill="#fff">
  <path fill="#012169" d="M0 0h724.6v480H0z"/>
  <path id="a" d="m544 47 7 21 20-8-12 18 18 11-21 2 3 22-15-16-15 16 3-22-21-2 18-11-12-18 21 8z"/>
  <path d="m579 242 5 12 14 1-11 9 3 13-11-7-12 7 3-13-10-9 14-1z"/>
  <use x="80" y="99" href="#a"/>
  <use x="-90" y="130" href="#a"/>
  <use y="320" href="#a"/>
  <use x="-454" y="98" href="#a" transform="scale(2)"/>
  <g id="b">
    <path d="M42 0H0v32l73 48H0v80h76L0 210v30h46l90-60v60h46V0h-46v62Z"/>
    <path fill="#c8102e" d="M0 0v21l89 59h33Zm121 160h15v10L30 240H0Zm33-15v95h29V0h-29v97H0v48Z"/>
  </g>
  <use href="#b" transform="rotate(180 180 120)"/>
</svg>