<svg xmlns="http://www.w3.org/2000/svg" viewBox="0 0 720 480">
  <path fill="#009b3a" d="M0 0h720v480H0z"/>
  <path fill="#fedf00" d="M75.4 240 360 421.7 644.6 240 360 58.3 75.4 240z"/>
  <circle cx="360" cy="240" r="120" fill="#002776"/>
  <path fill="#fff" d="M474.6 275.8c1.9-6.1 3.3-12.5 4.3-19a290.2 290.2 0 0 0-228.6-65.4c-2.6 5.9-4.8 12-6.4 18.4a273.3 273.3 0 0 1 230.7 66z" class="st3"/>
  <path fill="#009b3a" d="M256.3 193.6c-2.8.3-4.8 3.2-4.4 6.3.4 3.1 3 5.4 5.8 5 2.8-.3 4.8-3.2 4.4-6.3-.4-3.1-3-5.4-5.8-5zm1.1 9.2c-1.7.2-3.2-1.2-3.4-3.2s.9-3.7 2.6-3.9 3.2 1.2 3.4 3.2-.9 3.7-2.6 3.9zm19.3-7.4c-.1-2-1.9-3.5-3.8-3.3l-6.5.5.6 11.4 2.1-.1-.3-4.2 4.5-.3c1.2 1.1 1.3 3.1 1.4 4.2l2-.1c-.1-1.3-.3-3.7-1.5-4.7.9-1 1.6-2.1 1.5-3.4zm-8.1 2-.2-2.9 4.4-.3c.8-.1 1.5.6 1.6 1.4.1.8-.6 1.5-1.4 1.6l-4.4.2zm18-5.9-5.4.1.2 11.4 5.4-.1c2.7 0 4.9-2.3 4.8-5v-1.6c0-2.7-2.3-4.9-5-4.8zm0 9.3-3.1.1-.1-7.2 3.1-.1c1.7 0 3.1 1.3 3.2 3v1c0 1.7-1.4 3.1-3.1 3.2zm11.4 0 8.3.3-.1 2.1-10.3-.4.4-11.4 9.8.3-.1 2.1-7.8-.3-.1 2.3 6.5.2-.1 2-6.5-.2v3zm20.9-8.1 2.8.2-1 11.4-2-.2.7-7.8-3 7.6-1.8-.2-1.6-8-.7 7.8-2-.2 1-11.4 2.8.2 1.6 8 3.2-7.4zm17 3.3 8.2 1.4-.3 1.9-6.3-1.1-.3 1.8 5.3.9-.3 1.9-5.3-.9-.4 2.6 6.5 1.1-.3 1.9-8.4-1.5 1.6-10zm29.3 5-6.3-1.6-3 11 2.1.5 1.1-4.1 4.4 1.1c1.9.5 3.9-.7 4.4-2.6s-.8-3.8-2.7-4.3zm.3 3.8c-.2.8-1 1.3-1.8 1.1l-4.3-1.1.7-2.8 4.3 1.1c.9.1 1.4.9 1.1 1.7zm14.2.5-6.2-2-3.6 10.9 2 .6 1.3-4 4.3 1.4c.7 1.5.1 3.3-.2 4.4l1.9.6c.4-1.2 1.1-3.6.3-4.9a3.7 3.7 0 0 0 2.6-2.4c.5-2-.5-4.1-2.4-4.6zm.1 3.8c-.2.8-1.1 1.2-1.8 1l-4.2-1.3.9-2.8 4.2 1.3c.8.2 1.2 1 .9 1.8zm12.7.6c-2.7-1-5.7.6-6.8 3.6s.2 6.2 2.8 7.2c2.7 1 5.7-.6 6.8-3.6s-.2-6.2-2.8-7.2zm.8 6.4c-.7 1.9-2.5 2.9-4.1 2.3-1.6-.6-2.3-2.6-1.6-4.4s2.5-2.9 4.1-2.3c1.6.6 2.3 2.6 1.6 4.4zm16.1 4.6-2.1-.9c-.1-1.1-.7-2.1-1.7-2.5-1.5-.7-3.4.3-4.2 2.1s-.2 3.8 1.3 4.5c1.1.5 2.3.1 3.2-.7l-1.7-.7.7-1.5 2 .9 1.9.8-2.3 5.2-1.5-.7.6-1.4c-1.2.5-2.6.6-3.8 0-2.6-1.1-3.7-4.4-2.4-7.3s4.4-4.3 7-3.2c2.1.9 3.2 3.1 3 5.4zm12.2 1.7-5.8-2.9-5.2 10.2 1.9.9 1.9-3.8 4.1 2c.4 1.5-.4 3.3-.9 4.3l1.8.9c.6-1.1 1.7-3.4 1.1-4.8 1.2-.1 2.4-.8 2.9-2 .7-1.7 0-3.9-1.8-4.8zm-.5 3.8c-.4.7-1.2 1-2 .7l-3.9-2 1.3-2.6 3.9 2c.8.3 1.1 1.2.7 1.9zm8.6 2.9-1.1 2 5.7 3.2-1 1.7-5.7-3.2-1.4 2.6 7.2 4.1-1 1.8-9-5.1 5.6-9.9 8.5 4.8-1 1.8-6.8-3.8zm18.9 13-2.1-1.3c.7-1-.1-2-1.2-2.7-1.1-.7-1.9-1-2.6 0-1.1 1.6 6 4.6 3.8 8-1.6 2.5-4.4 1.4-6.2.2-1.6-1-3.9-3.4-2.4-5.8l2.2 1.4c-.6 1 0 2 1.4 2.9 1.4.9 2.3.8 2.7.2 1.3-2-6-4.8-3.7-8.2 1.9-2.9 5.2-.7 6.4.1 1.2.8 3.2 2.8 1.7 5.2zm12.2 8.5-2-1.4c.7-1 0-2-1-2.8-1-.7-1.9-1.1-2.6-.1-1.1 1.5 5.8 4.9 3.4 8.2-1.7 2.4-4.5 1.2-6.2-.1-1.5-1.1-3.8-3.6-2.1-5.9l2.1 1.5c-.7.9-.1 2 1.2 3 1.3.9 2.3 1 2.7.4 1.4-1.9-5.7-5.1-3.3-8.4 2.1-2.8 5.2-.4 6.4.5s3.1 2.9 1.4 5.1zm10.3 3.6c-2.2-1.8-5.6-1.2-7.6 1.3s-1.8 5.9.5 7.7c2.2 1.8 5.6 1.2 7.6-1.3s1.7-6-.5-7.7zm-1.2 6.3c-1.2 1.6-3.3 2-4.6.9s-1.4-3.1-.1-4.7c1.2-1.6 3.3-2 4.6-.9s1.3 3.2.1 4.7z" clip-rule="evenodd"/>
  <path fill="#fff" d="m266.9 216.9-3 2.2 1.2 3.6-3-2.2-3 2.2 1.2-3.6-3-2.2h3.7l1.2-3.6 1.2 3.6h3.5zm6.9 50.4-1.2-3.6-1.2 3.6h-3.7l3 2.2-1.2 3.6 3-2.2 3 2.2-1.2-3.6 3-2.2h-3.5zm-14.9 11-1-3-1 3h-3.1l2.5 1.8-1 3 2.5-1.8 2.5 1.8-1-3 2.5-1.8h-2.9zm26.1-17.5-.5-1.7-.5 1.7h-1.8l1.4 1-.5 1.7 1.4-1 1.4 1-.5-1.7 1.4-1H285zm13.6 18.7-1-3-1 3h-3.1l2.5 1.8-1 3 2.5-1.8 2.5 1.8-1-3 2.5-1.8h-2.9zm-3.8 12.2-.8-2.4-.8 2.4h-2.5l2 1.5-.8 2.4 2-1.5 2 1.5-.8-2.4 2-1.5h-2.3zm103.6-90.5-1.2-3.6-1.2 3.6h-3.7l3 2.2-1.2 3.6 3-2.2 3 2.2-1.2-3.6 3-2.2h-3.5zm43.8 81.5-1.2 3.6 3-2.2 3 2.2-1.2-3.6 3-2.2h-3.7l-1.2-3.6-1.2 3.6H439l3.2 2.2zm19.8 1 2-1.5h-2.5l-.8-2.4-.8 2.4h-2.5l2 1.5-.8 2.4 2-1.5 2 1.5-.6-2.4zm-12.1 7.7-1-3-1 3h-3.1l2.5 1.8-1 3 2.5-1.8 2.5 1.8-1-3 2.5-1.8h-2.9zm-29.8 22.2-1 3H416l2.5 1.8-1 3 2.5-1.8 2.5 1.8-1-3 2.5-1.8h-3l-.9-3zm.6 15.3-.8-2.4-.8 2.4h-2.5l2 1.5-.8 2.4 2-1.5 2 1.5-.8-2.4 2-1.5h-2.3zm12.1-21.6-.8-2.3-.8 2.4h-2.5l2 1.5-.8 2.4 2-1.5 2 1.5-.8-2.4 2-1.5h-2.3zm9.8-6.3-1-3-1 3h-3.1l2.5 1.8-1 3 2.5-1.8 2.5 1.8-1-3 2.5-1.8h-2.9zm-24.3 5.5-.8 2.4 2-1.5 2 1.5-.8-2.4 2-1.5h-2.5l-.8-2.4-.8 2.4h-2.5l2.2 1.5zm-103.1-62.9-1-3-1 3h-3.1l2.5 1.8-1 3 2.5-1.8 2.5 1.8-1-3 2.5-1.8h-2.9zm77.5-8.3 2 1.5-.8-2.4 2-1.5h-2.5l-.8-2.4-.8 2.4h-2.5l2 1.5-.8 2.4 2.2-1.5zm-31.5 57-1.2-3.6-1.2 3.6h-3.7l3 2.2-1.1 3.5 3-2.2 3 2.2-1.2-3.6 3-2.2h-3.6zm13.6-23.6-1-3-1 3h-3.1l2.5 1.8-1 3 2.5-1.8 2.5 1.8-1-3 2.5-1.8h-2.9zm-16.4-8.9-1 3 2.5-1.8 2.5 1.8-1-3 2.5-1.8H361l-1-3-1 3h-3.1l2.5 1.8zm-9.7 9.2-.8-2.4-.8 2.4h-2.5l2 1.5-.8 2.4 2-1.5 2 1.5-.8-2.4 2-1.5h-2.3zm5.3 10.3 1.4 1-.5-1.7 1.4-1h-1.8l-.5-1.7-.5 1.7h-1.8l1.4 1-.5 1.7 1.4-1zm42.9 40.2-1-3-1 3h-3.1l2.5 1.8-1 3 2.5-1.8 2.5 1.8-1-3 2.5-1.8h-2.9zm10.1-10.4-.8-2.4-.8 2.4h-2.5l2 1.5-.8 2.4 2-1.5 2 1.5-.8-2.4 2-1.5H407zm-19.8-2.9-.8-2.4-.8 2.4h-2.5l2 1.5-.8 2.4 2-1.5 2 1.5-.8-2.4 2-1.5h-2.3zm-74.2-4.1-1.2-3.6-1.2 3.6h-3.7l3 2.2-1.2 3.6 3-2.2 3 2.2-1.2-3.6 3-2.2H313zm47.4 31.2-.4-1.2-.4 1.2h-1.2l1 .7-.4 1.2 1-.7 1 .7-.4-1.2 1-.7h-1.2z" class="st3"/>
</svg>
