<svg xmlns="http://www.w3.org/2000/svg" viewBox="0 0 720 480">
  <path fill="#d90f19" d="M0 0h720v480H0z"/>
  <path fill="#171696" d="M0 48h720v384H0z"/>
  <circle cx="360" cy="240" r="140" fill="#fff"/>
  <marker id="a" markerHeight="30" markerWidth="22" orient="auto">
    <path fill="#338A00" d="M15 12Q9 2 0 5a12 13 10 1 1 0 17q8 3 16-10"/>
  </marker>
  <circle cx="360" cy="240" r="124" fill="none" stroke="#338A00" stroke-width="5"/>
  <path id="b" fill="none" marker-mid="url(#a)" d="M342 106h36l34 9 30 18 25 25 18 30 9 34v36l-9 34-18 30-25 25-30 18-34 9h-36"/>
  <use href="#b" transform="rotate(180 360 240)"/>
</svg>
