<svg xmlns="http://www.w3.org/2000/svg" viewBox="0 0 720 480">
  <path fill="#d52b1e" d="M0 0h720v480H0V0z"/>
  <path fill="#fff" d="M180 0h360v480H180V0zm186.9 391.8-3.4-64.8a7.2 7.2 0 0 1 8.3-7.4l64.4 11.3-8.7-24a5 5 0 0 1 1.5-5.5l70.6-57.2-15.9-7.4a5 5 0 0 1-2.6-5.9l14-43-40.6 8.6c-2.3.5-4.6-.7-5.5-2.9l-7.9-18.6-31.8 34.1c-1.9 2-4.9 2-6.9.2a5 5 0 0 1-1.4-4.5l15.3-79-24.5 14.2a4.9 4.9 0 0 1-6.7-1.7l-.2-.3L360 89l-24.9 49a4.7 4.7 0 0 1-6.4 2.2h-.1l-.3-.2-24.6-14.2 15.3 79a5 5 0 0 1-8.4 4.3L278.9 175l-7.9 18.6a5 5 0 0 1-5.5 2.9l-40.6-8.6 14 43c.8 2.3-.3 4.9-2.6 5.9l-15.9 7.4 70.6 57.2a5 5 0 0 1 1.5 5.5l-8.7 24 64.4-11.3a7 7 0 0 1 8.2 5.6v.2l.1 1.5-3.4 64.8 13.8.1z"/>
</svg>
