<svg xmlns="http://www.w3.org/2000/svg" xml:space="preserve" viewBox="0 0 720 480">
  <path fill="#fff" d="M0 0h720v480H0z"/>
  <path id="r" fill="#4E5B31" d="m346 383q-13-22-24-19-1 15 24 19m-4 6q-20-11-30-1 14 9 30 1m-16-10q-14-12-25-7 3 10 25 7m-20-14q-7-19-23-16 5 13 23 16m-14 1q-13-15-26-13 3 12 26 13m-24 5c42-6 32 20 0 0m4-22q-9-27-21-24 4 15 21 24m-12 0q-10-20-20-19 1 14 20 19m4 10q-14-13-29-7 6 11 29 7m-20-33q2-19-6-20 1 15 6 20m-7 11q-4-12-21-11 2 13 21 11m-2-12q-2-21-21-25 0 20 21 25m4 17a4 3 0 103 1m25 19a2 3 0 102 2m8-19a3 3 0 102 2m32 14a3 4-30 102-1m-12 25a3 4-20 100-2m50 2 14 5 12 9-7 6-10-12-11-5z"/>
  <use href="#r" transform="matrix(-1 0 0 1 720 0)"/>
  <path fill="#D57800" d="m582 83q-7 1-11 5t-16 5-18 10-25 7l-9 11q-24 15-47 17t-33 10q-36 10-64 4t-31-3-18-4q-14-10-10 0 8 56-28 42t-43 11-38 3q-7 3 2 18t2 22l7 7q8 0 9 19l16 11q4-4 26 9 9 5 24-1t22 5q5 8 2 13 8-3 18 1-20-28 36-28l31-10q21-15 28-11l7-11q-2-34 38-14 14-14 36-3-1-13-20-29t-3-36q2-7 10-5t13-9 41-26q20-24 42-29l4-11z"/>
</svg>
