<svg xmlns="http://www.w3.org/2000/svg" id="Layer_1" x="0" y="0" version="1.1" viewBox="0 0 720 480"><style>.st3{fill:#c09300}.st6{fill:#fff;stroke:#c09300;stroke-width:1.0159;stroke-linejoin:round;stroke-miterlimit:10}</style><path d="M0 0h720v480H0V0z"/><path fill="#fff" d="M0 0h720v320H0V0z"/><path fill="#ce1126" d="M0 0h720v160H0V0z"/><path fill="#fff" stroke="#c09300" stroke-linejoin="round" stroke-miterlimit="10" stroke-width="1.02" d="m360.6 241.9 54.8 50.9-3.9-92.4c-.6-14-12.7-10.8-21.6-5.7-9 5.7-19.2 5.7-30 1.9-10.8 3.8-21 3.8-30-1.9-8.8-5-21-8.3-21.6 5.7l-3.9 92.4 56.2-50.9z"/><path d="M339 213.2c1.3 0 4.5 0 5-.6l-1.8 44.5-5.2 5.1 2-49zm5-.6zm-22.2 64.5 5.2-5 2.5-62.7c-.7-.7-3.2-2.5-4.5-3.8l-3.2 71.5zm15.2-64.5c-1.3 0-3.8-1.4-5.1-2l-2.5 59.5 5.1-4.1 2.5-53.4zm-28.5-12.2-3.9 92.4 6.4-5.7 3.8-89.9c-1.3 0-4.5 1.9-6.3 3.2zm14 3.2c-.7-.7-4.5-3.8-5.7-5l-3.9 86.8 6.4-6.6 3.2-75.2zm-7.7-6.4zm82.7 6.4 3.2 75.2 6.4 6.6-3.9-86.8c-1.2 1.2-5 4.3-5.7 5zm-7 5.8 2.5 62.7 5.2 5-3.2-71.5c-1.3 1.2-3.8 3.1-4.5 3.8zm21-9c-1.8-1.3-5.1-3.2-6.3-3.2L409 287l6.4 5.7-3.9-92.3zm-6.3-3.2zm-29.3 15.4zm0 0 1.8 44.5 5.2 5.1-2-49c-1.2 0-4.4 0-5-.6zm7 0 2.5 53.4 5.1 4.1-2.5-59.5c-1.3.6-3.8 2-5.1 2zM362.5 252h-5.1l-7.7 35 2.5 2.5 2.6-2 4.4-31.2-1.8 31.2 2.5 3.2 2.5-3.2-1.8-31.2 4.4 31.2 2.6 2 2.5-2.5-7.6-35z" class="st3"/><path fill="#fff" stroke="#c09300" stroke-linejoin="round" stroke-miterlimit="10" stroke-width=".95" d="m342.8 236.7-15.3 54.2 21 3.2 9-40.7-14.7-16.7zm-5.1 18.5 1.8 4.5 9.9-9.5m-4.8-6.3 2.1 19.5 6.3-8.3m-2.5 3.3 3.4 11.9m1.4-4.4-7 10.6m2.2 10.6-2.2-10.6-1.9-10.7-4.7 6.3-2-7.3-6.5 6.7 3.3 12.2 4.6-7.5 2.5 7.7 4.7-7.3m-16.3 13 4.2-6 2.8 9.2 3.8-6.4 2.5 7.7m31.9-57.4 15.3 54.2-21 3.2-9-40.7 14.7-16.7zm5.1 18.5-1.8 4.5-9.9-9.5m4.8-6.3-2.1 19.5-6.3-8.3m2.5 3.3-3.4 11.9m-1.4-4.4 7 10.6m-2.2 10.6 2.2-10.6 1.9-10.7 4.7 6.3 2-7.3 6.5 6.7-3.3 12.2-4.6-7.5-2.5 7.7-4.7-7.3m16.3 13-4.2-6-2.8 9.2-3.8-6.4-2.5 7.7"/><path fill="#fff" stroke="#c09300" stroke-linejoin="round" stroke-miterlimit="10" stroke-width="1.9" d="M360 315.1c16 0 31.2-1.3 40.2-3.8 3.8-.7 3.8-2.6 3.8-5.2 3.8-1.3 1.8-5.7 4.5-5.7-2.6.7-3.2-4.5-6.4-3.8 0-4.5-4.5-5.1-8.3-3.8-7.6 2.5-21 3.1-33.7 3.1-12.7-.6-26.1-.6-33.7-3.1-3.8-1.3-8.3-.7-8.3 3.8-3.2-.7-3.8 4.5-6.4 3.8 2.6 0 .7 4.5 4.5 5.7 0 2.5 0 4.5 3.9 5.2 8.7 2.5 23.9 3.8 39.9 3.8z"/><path d="M338.3 290.8c5.2.7 10.9 1.3 15.4.7 2.5 0 4.4 4.4-.7 5.1-4.5.6-11.5 0-15.3-.7-3.2-.6-10.2-1.8-14.7-3.1-4.5-1.9-1.3-5.7 1.3-5.2 3.9 1.3 9 2.5 14 3.2zm43.4 0c-5.2.7-10.9 1.3-15.3.7-2.6 0-4.5 4.4.6 5.1 4.5.6 11.5 0 15.3-.7 3.2-.6 10.2-1.8 14.7-3.1 4.5-1.9 1.3-5.7-1.3-5.2-3.9 1.3-9 2.5-14 3.2z" class="st6"/><path d="M322.5 288.3c-3.9-.7-5.7 3.8-4.5 6.3.6-1.3 3.2-1.3 3.8-2.5.7-2-.6-2 .7-3.8zm15.2 11.8c0-2.5 2.5-2.2 2.5-4.7 0-1.3-.7-3.2-1.9-3.2-1.3 0-2.5 1.3-2.5 2.5-.6 2.4 1.9 2.8 1.9 5.4zm18.2-7.3c3.8 0 3.4 5.1 1.6 7.6 0-1.8-3.2-2.5-3.2-3.8 0-2 2.9-2 1.6-3.8zm41.6-4.5c3.9-.7 5.7 3.8 4.5 6.3-.6-1.3-3.2-1.3-3.8-2.5-.7-2 .6-2-.7-3.8zm-15.2 11.8c0-2.5-2.5-2.2-2.5-4.7 0-1.3.7-3.2 2-3.2s2.5 1.3 2.5 2.5c.5 2.4-2 2.8-2 5.4zm-18.2-7.3c-3.8 0-3.4 5.1-1.6 7.6 0-1.8 3.2-2.5 3.2-3.8 0-2-2.9-2-1.6-3.8z" class="st6"/><path fill="#fff" stroke="#c09300" stroke-linejoin="round" stroke-miterlimit="10" stroke-width=".71" d="M323.7 289.6c1.3 0 3.2.6 3.8 1.3l-3.8-1.3zm6.3 1.9c.7 0 3.2.6 4.5 1.3l-4.5-1.3zm23 2.6c-1.3 0-3.8 0-4.5.6l4.5-.6zm-7 0c-.7-.7-3.2-.7-4.5 0h4.5zm50.3-4.5c-1.3 0-3.1.6-3.8 1.3l3.8-1.3zm-6.3 1.9c-.7 0-3.2.6-4.5 1.3l4.5-1.3zm-23 2.6c1.3 0 3.8 0 4.5.6l-4.5-.6zm7 0c.7-.7 3.2-.7 4.5 0H374z"/><path d="M322.7 299.7c-.4-.1-.7-.4-.5-.8.1-.5.5-.8.9-.6.2.1.7.5.7.7 0 .2-.2.6-.3.6 0 0-.1 0-.1.1h-.7zm43.9 3.1c-.2-.1-.4-.4-.4-.6 0-.3.5-.8.7-.8.1 0 .5.2.7.3.3.3.2.7-.1 1-.2.1-.7.2-.9.1zm.3 2c-.3-.1-.5-.3-.5-.7 0-.4 0-.4.4-.7l.3-.2.3.1c.4.2.6.4.6.6 0 .3-.2.6-.5.7-.3.3-.3.3-.6.2zm-40.7-8.7c-.3 0-.7.2-.9.4-.5.1-1.1.4-1.6.1-.5-.2-1.2 0-1.2.6.1.5.9.8 1.3.5.3-.4 1.2-.7 1.3 0-.4.6-.3 1.3-.6 1.9 0 .4-.2.7-.4 1-.4 0-.8 0-1.1.2-.5 0-1 .3-1.3.7-.3.5-.6.9-.7 1.5.1.6.8.7 1.3.8.5.1 1.1.3 1.6.5.9.2 1.7.5 2.6.7 1.3.4 2.6.6 3.9.9.1 0 .3.1.4.1.5.1.8-.5.8-.9.3-.9.5-1.9.7-2.8.2-.4.4-1.2-.3-1-.4.2-.8.6-1.3.6-.7 0-.3.8 0 1.1.1.5-.1 1-.4 1.4-.4.3-.9 0-1.4-.1-.5 0-1.4-.2-.9-.9.2-.5.2-1 .4-1.4.2-.5.3-1 .4-1.5-.3-.6-.8.2-1.2.3-.3.2-1.3.3-.8.7.5.3.1 1 0 1.4 0 .6-.7.8-1.2.6-.5 0-1.2-.4-.8-1 .1-.5.3-.9.4-1.4l.6-1.6c.1-.5.3-1 .5-1.4 0-.5.4-1 .4-1.6-.2-.3-.3-.4-.5-.4zm-2.9 5.8h.2c.2.1.2.2 0 .4-.1.1-.2.2-.2.1-.4 0-.5-.1-.5-.2s0-.2.3-.3h.2zm-.8 4c-.4-.4-.3-.6.3-1.1.3-.2.4-.2.7.1.4.4.5.7.1 1-.2.2-.3.2-.5.2-.3 0-.4 0-.6-.2zm2.4.7c-.4-.1-.6-.5-.5-.8.1-.3.2-.4.7-.4.6 0 .7.1.7.6 0 .3 0 .3-.2.5-.1.1-.4.2-.7.1zm71.3.1c-.2-.2-.2-.2-.2-.4 0-.3.2-.6.6-.8.5-.2.8-.2 1 .1.3.5.3.7-.1 1-.2.2-.2.2-.6.2-.4.1-.5.1-.7-.1zm-68 .9c-.3-.1-.4-.3-.4-.6s0-.3.2-.5c.1-.1.3-.2.5-.2s.3 0 .5.1c.4.3.5.6.3.9-.4.4-.7.4-1.1.3zm17.5.8c-.1-.1-.2-.1-.2-.2 0-.4 0-.9.2-1.3.1-.4 0-.9.2-1.3.1-.7.1-1.5.3-2.2 0-.4 0-.8.2-1.1.1-.6 0-1.2.2-1.8 0-.2.2-.8.4-.4.3.5.7.8 1.1 1.2.4.2 0 .5-.2.6-.3.1-.4.5-.4.8 0 .3-.2.6-.2 1-.1.5-.1 1-.1 1.5-.1.5-.1 1-.1 1.5 0 .3-.1.6-.1.9 0 .3-.1.7-.3.9-.4.1-.8.1-1-.1zm23.8-7.8c-.4.3-.7.6-1.1 1-.5.4.4.6.5.9.1.5.1 1 .2 1.5.1.4.2.9.2 1.4 0 .5-.7.4-1 .7-.4.2-.6.6-.9.8-.2.4-.2.9-.3 1.3 0 .4-.2.8 0 1.1l.1.1c.1.1.3 0 .4 0 .4 0 .8 0 1.2-.1 1-.2 1.9-.2 2.9-.2.6 0 1.2-.2 1.8-.2.5.1.7-.4.7-.8-.3-.5 0-1.1-.3-1.7-.2-.5-.1-1.1-.2-1.7 0-.4-.6-.6-.8-.3-.3.3-.7.3-.9.7-.2.5.5.5.6.8.1.4.1.8.1 1.2.1.5-.4.5-.7.6-.4.2-1 .3-1.3-.2-.2-.4-.1-.8-.2-1.2 0-.7-.2-1.4-.2-2.1 0-.9-.2-1.7-.2-2.6-.1-.6-.1-1.2-.6-1zm-.5 6.6h.2v.6l-.3.1c-.1 0-.2.1-.3.1-.1 0-.1-.1-.2-.1-.2-.1-.1-.3.1-.5s.3-.3.5-.2zm-24-7.5c-.3.1-.7.6-1 .6-.7 0-.6.7-.1 1 .1.2 0 .5 0 .7.1.6-.3 1.1-.2 1.8 0 .7-.2 1.4-.3 2.1-.2.7-.2 1.5-.3 2.2-.1.7-.6.4-1 .3v-.8c.2-.7-.4-.8-.9-.9-.5.1-.8-.4-.7-.9.2-.3.8-.2 1.2-.2.8.2.8-.9.4-1.3-.3-.5-1-.7-1.1-1.2.1-.7-.4-1.4-.9-1.7-.9-.1-1.5.7-1.9 1.4l-1.1.3c-.6.1-1.4 1.1-.6 1.5.4.1 1.8.4 1.2 1-.3.6-1 .6-1.5.4-.6 0-1.2-.3-1.2-1-.1-.6-.1-1.2-.4-1.8-.1-.7-.9-.5-.9.1-.6.4-.5 1.1-.1 1.6.3.6 0 1.3-.2 1.8-.2.7-.9.7-1.5 1-.3.1-1.3-.1-.9.5.6.2 1.3.4 1.9.2.7-.1 1.2-.5 1.5-1.1.4-.4 1.2-.2 1.8-.2.6 0 1.3.4 1.8.2.2-.5 1-1.2 1.2-.4 0 .7.6 1.1 1.2 1 .7 0 .4.5.4.9 0 .7.5 1.1 1.1 1.5.2.1.4 0 .7 0 .6-.2 1.2-.5 1.4-1.1.2-.5.2-1.2.4-1.7.1-.9.3-1.8.4-2.7.2-.8.2-1.7.3-2.6l.3-1.9c-.1-.6-.2-.6-.4-.6zm-5.4 3.4c.1 0 .2.2.2.4 0 .3.2.5.4.6.1 0 .1.2 0 .3-.1.1-.3.1-.6.1-.5 0-.7-.1-1-.4l-.2-.1.2-.2c.2-.1.3-.3.4-.4.3-.3.4-.4.6-.3zm52.8-6.3c-.5 0-.9.1-1.3.2-.8-.1-1.2.8-.4 1.2.5 1.2 1.2-.3 2-.1 1.1.2 1.2 1.5 1.4 2.4.1.9.3 1.8.6 2.7.8.9-.6 1.4-1.1.7-.5-.5-1.5-1.2-2.1-.4-.7.3-.8 1.3-1.4 1.5-1 .3-1.1-.9-1.6-1.4-.5-.7-1.4-.7-2.1-1-.3-.7-.2-1.9-.9-2.3-.6.2-1.7 1.4-.8 1.9.9.8-.4 1.1-.8 1.6-.6.7-.7 1.5-.8 2.4-1 .6-1.2-.6-1.3-1.4-.1-.9-.8-.6-1.4-.3-.8.3-1.1 1-1.7 1.6-.1.5 0 1.1 0 1.6.2.6 1 .3 1.5.3.8-.3 1.1.5.5 1-.4.5-1.8.3-1.6 1.1.4.1.9 0 1.3 0 .9-.2 1.8-.9 1.9-1.8.1-.8 1.3-.7 2-.9.8-.2 1.8-.3 2 .7.6.6 1.8 1.3 2.4.4.6-.4.9-1.1.9-1.8-.1-.6 1-.7 1.3-.3.4.7 1.7.5 2.4.1.7-.5.8-1.4 1.8-1.4 1.4-.4 2.9-.7 4.3-1.2 1.1-.2-.2-1-.4-1.4-.9-.4-1.6 1.3-2.6.4-.7-.6-.7-1.7-1-2.5-.2-1.1-.1-2.3-.9-3.2-.6-.3-1.3-.5-2.1-.4zm-5.5 7.5c.1 0 .2 0 .4.1.4.2.6.5.6.8 0 .2 0 .2-.3.3-.2.1-.3.2-.4.1-.1 0-.5-.3-.5-.4 0 0 0-.2-.1-.4-.1-.3-.1-.3 0-.4.2 0 .2-.1.3-.1zm5.3.3c.3 0 .5.1.6.3.1.3 0 .5-.3.6-.2.1-.3.1-.4.1 0 0-.2-.1-.3-.2-.2-.1-.2-.2-.2-.4-.1-.1.2-.4.6-.4zm-7.2.1c.1 0 .2 0 .3.1.1.1.2.2.2.5v.5c0 .2 0 .2-.4.2-.5 0-.6-.1-.6-.5 0-.3 0-.4.2-.5.1-.3.2-.3.3-.3zm-4.4 1.1c.2 0 .3.2.4.3.1.3 0 .4-.2.5-.2.1-.6.1-.7 0 0 0-.1-.1-.1-.2-.1-.1 0-.1 0-.2l.1-.1s.1-.1.1-.2c.1-.1.3-.1.4-.1zm7.4 1c.1 0 .3 0 .4.1.1.1.1.3 0 .5-.1.1-.7.1-.9 0-.1 0-.1-.1-.1-.2s0-.2.2-.3c.1-.1.3-.1.4-.1zm-13.7 3.8c-.1 0-.2-.1-.1-.2.1-.2.4-.3.7-.4.4-.2.8-.5 1.1-.9 0-.3.3-.4.3-.7 0-.4 0-.8-.1-1.1-.1-.3-.4-.6-.7-.8-.2-.2-.5-.2-.6-.5 0-.3.2-.5.3-.7.2-.3.3-.7.5-1 .2-.2.5 0 .6.2.2.2.3.5.4.7.2.3.5.6.5.9.1.2.3.5.3.8 0 .3.2.6.2 1s0 .9-.2 1.3c-.1.2-.3.4-.5.6-.3.2-.5.5-.9.6-.2.1-.4.3-.7.3-.2 0-.6 0-1.1-.1.1.1 0 0 0 0zm-5.5.4c-.2-.2-.2-.3-.2-.5s0-.3.2-.5c.4-.4.5-.4 1.1-.1.6.3.8.3.8.1 0-.2.4-.4.7-.4.2 0 .3 0 .5.2s.2.2.2.5c0 .4 0 .4-.2.6-.2.2-.3.2-.5.2-.3 0-.6-.2-.6-.5 0-.2-.1-.2-.2-.1 0 0-.1.1-.2.1-.2 0-.4.2-.6.4-.1.1-.2.1-.4.1-.3.1-.4.1-.6-.1zm-15.9-7.1c-.5 0-1.1.5-1.2 1 .1.6.6 1.2.3 1.8.2.8-.6 1.1-1.2.7-.3-.8-.5-1.6-1-2.3-.6-.2-.9.8-1.4 1.2.2.6.9 1.1.9 1.9.2.7-.3 1.5-.9 1.9-.5.5-1.3.3-2 .4-.8.5.6.7 1 .7.8.1 1.7 0 2.3-.7.6-.3.6-1.4 1.3-1.5 1.3-.1 2.5.2 3.8.2.7.2 1.7-.1 2.2.4 0 .9.8 1.4 1.5 1.8.4.1.8-.4 1.2-.5.8-.2.5-1.2 1-1.6 1.3-.1 2.7-.1 4-.1.3 0 .3-.4.5-.5 0-.5 0-1-.1-1.5-.3-.6 0-1.5-.4-2-.7-.2-1.2.4-1.9.5-.7.3-1.4 1-1.4 1.8-.4.7-1.1-.1-.9-.7 0-.3.1-.6 0-.8-.4-.5-1.1-.3-1.7-.4-.8 0-1.6-.1-2.4-.1-.7-.1-1.5.1-2.2-.1-.8 0-.7-.8-.8-1.4-.1-.1-.3-.1-.5-.1zm1.6 2.9c.3 0 .5 0 .8.1.3.1.7-.1 1 0 .8.1 1.6.1 2.4.2.2 0 .4.1.5.3v1.6c0 .2.1.5-.1.6-.1 0-.1.1-.2.1-.2-.1-.4-.2-.6-.4v-1.1c-.2-.1-.4-.2-.6-.2-.7 0-1.3-.1-2-.1-.6 0-1.1 0-1.7-.1-.2-.1-.5-.1-.6-.3-.2-.2.1-.5.3-.6.3 0 .6-.1.8-.1zm9.1.2c.1 0 .2 0 .2.3l.1.4c0 .1 0 .1-.1.2-.4.1-.8.1-.9 0-.1-.1 0-.3.1-.4.2-.3.4-.5.6-.5z" class="st3"/><path fill="#fff" stroke="#c09300" stroke-width=".97" d="M369.8 202.5c.5 0-.7-2.9-.7-2.9 1.4 1.4 6.7 1.8 6.7 1.8-3.2-1.4-6.4-12.1-6-20.6.3-8.5-1.2-11.9-2.5-13.1-1.6-1.6-6.7-3-10.1-3.2-1.9-.1-1.6 1.4-1.6 1.4-3.5-.9-7.1-1.3-8.7-.2-1.5 1-1.8 6-.7 5.1 2.7-2.1 5-.2 6.6 2.1 1.4 2 1.3 7.8-.7 14.6-2.1 7.1-8 14.2-8 14.2 3.2 0 7.6-2.8 7.6-2.8l-1.1 4.4c3.4-1.6 6-4.1 6-4.1l3.2 3.4c1.1-1.4 3.2-3.4 3.2-3.4s2.8 2.9 6.8 3.3zm-12.9-20.4s-1.8 13.1-5.1 16.9m7.9-17.3s-.7 13.3-3 17.6m5.5-17s0 14.6.9 17m2.3-16.3s.7 12.2 3.7 16.7"/><path fill="#c09300" stroke="#c09300" stroke-width=".28" d="M357 174.2s-2.2-.5-2.8 0c-.5.4-.6.8-.7 1-.2-1-.4-1.7-.8-2.2-1.6-2.3-3.9-4.3-6.6-2.1 0 0 .9-2.8 2.9-2.9 1.6-.1 5 1.1 8 6.2zm11.6-4.6c-.8-1.1-3.1-1-3.6-1-.8.1-1.4.1-2.5.3-.5.1-1.3.3-1.8.6-.3.3-.6 1.3-1.2 1.3-.8 0-.8-.2-1-.5-.3-.3-.4-.8-.7-.8-.9.2-2.3-.5-4.1-1.9-1.8-1.4-2.5-1.8-4.8-1.6-2.3.2-3 1.5-3 1.5l.1-.2c.2-.7.6-1.4 1-1.7 1.6-1.1 5.1-.7 8.7.2 0 0-.3-1.5 1.6-1.4 3.4.2 8.5 1.6 10.1 3.2.3.5.8 1.1 1.2 2zm-8.6-1.1c0-.5-.4-.9-.9-.9s-.9.4-.9.9.4.9.9.9.9-.3.9-.9z"/><path fill="#fff" stroke="#c09300" stroke-miterlimit="10" stroke-width=".92" d="M360 261.8c26.1-20.1 23.9-49.5 23.9-49.5-.7.1-1.3.2-2 .2-5.5 0-18.5-3.1-21.6-7.1-3.3 3.6-16.6 7.1-22.1 7.1-.7 0-1.4-.1-2-.2-.1 0-2.3 29.4 23.8 49.5z"/><path fill="none" stroke="#c09300" stroke-miterlimit="10" stroke-width=".73" d="M381.8 214.4h-.7c-5 0-16.5-2.5-20.9-6.4-4.7 3.5-16.4 6.4-21.3 6.4-.2 0-.5 0-.7-.1a56.32 56.32 0 0 0 2.1 14.9c3.3 11.9 10 22 19.7 29.7 9.7-7.7 16.4-17.8 19.7-29.7 1-3.8 1.7-7.7 2-11.6 0-1 .1-2.4.1-3.2z"/><path d="M352.7 211.9v40c-5.7-6.4-9.8-14-12.2-22.5-1-3.7-1.7-7.6-2-11.5l-.1-3.3c.2 0 .4.1.7.1 3-.1 8.7-1.2 13.6-2.8zm14.6.1v39.8c5.7-6.4 9.8-14 12.1-22.5 1-3.8 1.7-7.6 2-11.5.1-1.1.1-2.1.1-3.2h-.7c-3 0-8.6-1-13.5-2.6z" class="st3"/></svg>