<svg xmlns="http://www.w3.org/2000/svg" xml:space="preserve" viewBox="0 0 720 480"><path fill="#75b2dd" d="M0 0h720v480H0z"/><path fill="#fff" d="M370.8 81.2h34.9l-28.2 20.5 10.8 33.2-28.3-20.6-28.2 20.5 10.8-33.2-28.2-20.5h34.9L360 48l10.8 33.2zm148 169.6L552 240l-33.2-10.8v-34.9l-20.5 28.2-33.2-10.8 20.5 28.2-20.5 28.2 33.2-10.8 20.5 28.2v-34.7zM377.4 378.3l10.8-33.2-28.2 20.6-28.2-20.5 10.8 33.2-28.2 20.5h34.9L360 432l10.8-33.2h34.9l-28.3-20.5zM221.7 222.6l-20.5-28.2v34.9L168 240l33.2 10.8v34.9l20.5-28.2 33.2 10.8-20.6-28.3 20.5-28.2-33.1 10.8z"/></svg>