<svg xmlns="http://www.w3.org/2000/svg" viewBox="0 0 720 480">
  <path fill="#da0000" d="M0 0h720v480H0z"/>
  <path fill="#fff" d="M0 0h720v320H0z"/>
  <path fill="#239f40" d="M0 0h720v160H0z"/>
  <marker id="b" markerHeight="50" markerWidth="100">
    <path fill="none" stroke="#fff" stroke-width="3.7" d="M0 2h49M2 19V9h15v8h15V9H22M7 17h4m37 0h-9V9h15m0-9v17h15V0m-7 0v17"/>
  </marker>
  <path id="a" fill="#DA0000" d="M360 184a8 8 0 0 0 15-2 8 8 0 0 1-15 8m0 3q3 4 7 6v35l-2 45a60 60 0 0 0 15-82 56 56 0 0 1-10 90q13 4 23 3-14 5-28 2v2l-5 6m37-20a60 60 0 0 0-12-84 46 46 0 0 1 12 84"/>
  <use href="#a" transform="matrix(-1 0 0 1 720 0)"/>
  <path id="c" marker-mid="url(#b)" d="M-124 134h74.7 74.7 74.7 74.7 74.7 74.7 74.7 74.7 74.7H623h74.7 74.7"/>
  <use y="193.7" href="#c"/>
  <path stroke="#fff" stroke-dasharray="34.3 3" stroke-width="7" d="M-11 160h731M-11 320h731"/>
</svg>