<svg xmlns="http://www.w3.org/2000/svg" xml:space="preserve" baseProfile="tiny" overflow="visible" version="1.2" viewBox="0 0 720 480">
  <path fill="#FFF" d="M0 0h720v480H0z"/>
  <path fill="#CD2E3A" d="M426.6 140.2c55.1 36.8 70 111.3 33.3 166.4-36.8 55.1-111.3 70-166.4 33.3-55.1-36.8-70-111.3-33.3-166.4 36.7-55.2 111.2-70.1 166.4-33.3"/>
  <path fill="#0047A0" d="M260.2 173.4c-18.4 27.6-10.9 64.8 16.6 83.2 27.6 18.4 64.8 10.9 83.2-16.6s55.6-35 83.2-16.6 35 55.6 16.6 83.2c-36.8 55.1-111.3 70-166.4 33.3-55.1-36.8-70-111.3-33.2-166.5z"/>
  <path fill="none" stroke="#000" stroke-width="20" d="m168.6 184.5 66.6-99.8m-91.5 83.2L210.2 68m-91.5 83.2 66.6-99.8m349.4 377.2 66.6-99.8M509.8 412l66.6-99.8m-91.6 83.1 66.6-99.8m-316.2 99.8-66.6-99.8M210.2 412l-66.6-99.8m41.7 116.4-66.6-99.8m482.6-177.6-66.6-99.8m41.6 116.5L509.8 68m41.6 116.5-66.6-99.8"/>
  <path fill="none" stroke="#FFF" stroke-width="10" d="m501.4 334.3 83.2 55.5m-29.1-280.2 25-16.6m-79.1 52.7 29.1-19.4m-366 244.1 25-16.6"/>
</svg>
