<svg xmlns="http://www.w3.org/2000/svg" xml:space="preserve" baseProfile="tiny" overflow="visible" version="1.2" viewBox="0 0 721 481">
  <path fill="#BF0A30" d="M0 0h721v481H0V0z"/>
  <path fill="#FFF" d="M721 437.3H0v-43.7h721v43.7zm0-87.5H0v-43.7h721v43.7zm0-87.4H0v-43.7h721v43.7zm0-87.5H0v-43.7h721v43.7zm0-87.4H0V43.7h721v43.8z"/>
  <path fill="#002868" d="M0 0h218.6v218.6H0V0z"/>
  <path fill="#FFF" d="m147.9 162.4-14.8-45.3 38.6-28V89H124l-14.7-45.3L94.6 89H46.9v.1l38.6 28-14.7 45.3 38.5-28 38.6 28z"/>
</svg>
