<svg xmlns="http://www.w3.org/2000/svg" xml:space="preserve" baseProfile="tiny" overflow="visible" version="1.2" viewBox="0 0 721 481">
  <path fill="#002B7F" d="M0 0h721v481H0V0z"/>
  <path fill="#FFC61E" d="M0 220.5h721v40.1H0v-40.1z"/>
  <path fill="#FFF" d="m190.5 420.9-10.4-41.4-29.7 30.7 11.7-41.1-41.1 11.7 30.7-29.7-41.5-10.4 41.4-10.4-30.7-29.7 41.1 11.7-11.7-41.1 29.7 30.7 10.4-41.5 10.4 41.4 29.7-30.7-11.7 41.1 41.1-11.7-30.7 29.7 41.5 10.4-41.4 10.4 30.7 29.7-41.1-11.7 11.7 41.1-29.7-30.7-10.4 41.5z"/>
</svg>