<svg xmlns="http://www.w3.org/2000/svg" viewBox="0 0 720 480">
  <path fill="#0038A8" d="M0 0h720v480H0z"/>
  <path fill="#CE1126" d="M0 240h720v240H0z"/>
  <path fill="#FFF" d="M415.7 240 0 480V0"/>
  <path fill="#FCD116" d="m149.3 138.7-6.2 6.2 3.1 47.2-3.1.3-5.7-43.1-5.1 5.1 7.7 38.5c-6.3 1.3-12.1 3.7-17.3 7.2l-21.8-32.6h-7.2l26.4 34.5c-.8.6-1.6 1.3-2.4 2l-31.2-35.6h-8.8v8.8l35.6 31.2c-.7.8-1.4 1.6-2 2.4l-34.5-26.5v7.2l32.6 21.8c-3.5 5.2-6 11.1-7.2 17.3L63.8 223l-5.1 5.1 43.1 5.7-.3 3.1-47.2-3.1L48 240l6.2 6.2 47.2-3.1.3 3.1-43.1 5.7 5.1 5.1 38.5-7.7c1.2 6.3 3.7 12.1 7.2 17.3l-32.6 21.8v7.2l34.5-26.4c.6.8 1.3 1.6 2 2.4l-35.6 31.2v8.8h8.8l31.2-35.6c.8.7 1.6 1.4 2.4 2l-26.5 34.5h7.2l21.8-32.6c5.2 3.5 11.1 6 17.3 7.2l-7.7 38.5 5.1 5.1 5.7-43.1 3.1.3-3.1 47.2 6.2 6.2 6.2-6.2-3.1-47.2 3.1-.3 5.7 43.1 5.1-5.1-7.7-38.5c6.2-1.2 12.1-3.7 17.3-7.2l21.8 32.6h7.2L178.4 278c.8-.6 1.6-1.3 2.4-2l31.2 35.6h8.8v-8.8l-35.6-31.2c.7-.8 1.4-1.6 2-2.4l34.5 26.4v-7.2l-32.6-21.8c3.5-5.2 6-11.1 7.2-17.3l38.5 7.7 5.1-5.1-43.1-5.7.3-3.1 47.2 3.1 6.2-6.2-6.2-6.2-47.2 3.1-.3-3.1 43.1-5.7-5.1-5.1-38.5 7.7c-1.2-6.2-3.7-12.1-7.2-17.3l32.6-21.8v-7.2l-34.5 26.4c-.6-.8-1.3-1.6-2-2.4l35.6-31.2v-8.8H212l-31 35.5c-.8-.7-1.6-1.4-2.4-2l26.5-34.5h-7.2L176 200.1c-5.2-3.5-11.1-6-17.3-7.2l7.7-38.5-5.1-5.1-5.7 43.1-3.1-.3 3.1-47.2-6.3-6.2zM34.5 388.8l8.1 17.3 19-1.6-13.9 13.1 7.4 17.6-16.7-9.2L24 438.4l3.6-18.8-16.3-9.9 18.9-2.4 4.3-18.5zm314.8-174.2.4 19.1 18 6.3-18 6.3-.4 19.1-11.5-15.2-18.3 5.5 10.9-15.7-10.9-15.7 18.3 5.5 11.5-15.2zM24 41.6l14.4 12.5 16.7-9.2-7.4 17.6 13.9 13.1-19-1.6-8.1 17.3-4.3-18.6-18.9-2.4 16.3-9.9L24 41.6z"/>
</svg>
