<svg xmlns="http://www.w3.org/2000/svg" stroke-linecap="round" stroke-width=".6" viewBox="0 0 720 480">
  <path fill="#C6363C" d="M0 0h720v480H0z"/>
  <path fill="#0C4076" d="M0 159.6h720V480H0z"/>
  <path fill="#FFF" d="M0 318.8h720V480H0z"/>
  <path fill="#EDB92E" stroke="#21231E" d="M237.2 109c1.8-.1 1.4 3.1 1 3.8-.5.9-.9 1-1.5.1-.5-.7-1.3-3.8.5-3.9zm-34.1 4.5c1.7-.5 2.1 2.7 1.9 3.5-.2 1-.6 1.1-1.4.5-.6-.6-2.2-3.4-.5-4zm74-4.5c-1.8-.1-1.4 3.1-1 3.8.5.9.9 1 1.5.1.5-.7 1.3-3.8-.5-3.9zm34.1 4.5c-1.7-.5-2.1 2.7-1.9 3.5.2 1 .6 1.1 1.4.5.6-.6 2.2-3.4.5-4z"/>
  <g stroke="#21231E">
    <path fill="#EDB92E" d="M316 126.8c-3.7 9.1-7.1 9.3-7.7.7.8-.3.5-1.7 1.4-1.2.5.3 1.1-.6.7-1-1.1-.8-2-.7-2.9.2-.4-1.4-1.5-2-2.8-1.4-.6.3-.4 1.3.2 1.2.9-.1.6.9.9 1.5-6.6 8.6-10 7.6-9.2-3.7-1.6-.3-3.4-.6-5.1-1.2-6.1 12.2-10.4 12.8-13.9 1.8.8-.6.5-2 1.6-1.5.6.3 1.1-.8.6-1.3-1.3-1.1-2.7-.7-3.6.7-.8-1.5-2.1-2-3.5-1.1-.6.4-.2 1.5.4 1.4 1.2-.3.7 1.3 1.6 1.9-2.7 10.3-16.3 11-14.1-4.3l-3.5.1-3.5-.1c2.2 15.3-11.4 14.6-14.1 4.3.9-.6.4-2.2 1.6-1.9.6.2 1-1 .4-1.4-1.4-.9-2.7-.4-3.5 1.1-.9-1.4-2.3-1.8-3.6-.7-.6.5 0 1.6.6 1.3 1.1-.5.9 1 1.6 1.5-3.5 11-7.9 10.4-13.9-1.8-1.6.6-3.5.9-5.1 1.2.8 11.3-2.6 12.4-9.2 3.7.3-.7-.1-1.6.8-1.5.6.1.8-1 .2-1.2-1.3-.6-2.4.1-2.8 1.4-.9-.9-1.9-1-2.9-.2-.4.5.2 1.3.7 1 .9-.6.6.9 1.4 1.2-.6 8.7-4 8.4-7.7-.7l-1.9.3c-.1 2.1.7 4.4 2 6.1l1.7 1.9c1.9 3 3.6 6.4 3.6 6.4l3.4 16.5H307l3.4-16.5s1.7-3.3 3.6-6.4l1.7-1.9a9.5 9.5 0 0 0 2-6.1l-1.7-.3z"/>
    <path fill="#EDB92E" d="M257.1 140.8a540.3 540.3 0 0 0-39.7 1.5l-14.1 1.3c-2.6.2-3.1-2.8 0-3.1a521 521 0 0 1 107.4 0c3.1.3 2.6 3.4 0 3.1a566.6 566.6 0 0 0-35.8-2.5c-5.8-.2-11.8-.3-17.8-.3z"/>
    <path fill="none" d="m245.1 147.8 12-6 12 6-12 6zm-26.6 1.5 11.6-6.7 12.3 5.2-11.6 6.7z"/>
    <path fill="#EDB92E" d="m204.5 144.5 12.5 4.7-10.4 6.9c-2.6-.9-4.7-10-2.1-11.6z"/>
    <path fill="none" d="m295.8 149.3-11.6-6.7-12.3 5.2 11.6 6.7z"/>
    <path fill="#EDB92E" d="m309.8 144.5-12.5 4.7 10.4 6.9c2.6-.9 4.7-10 2.1-11.6zm-2.6 12.4c1.1.2 1.6.8 1.6 1.5s-.5 1.3-1.6 1.5l-.8.1a598.7 598.7 0 0 1-98.4 0l-.8-.1c-1.1-.2-1.6-.8-1.6-1.5s.5-1.3 1.6-1.5l.8-.1a598.7 598.7 0 0 1 99.2.1z"/>
    <path fill="none" d="m220.2 159 12.3-.6 12.3-.4c8.2-.2 16.4-.2 24.6 0l12.3.4 12.3.6m.1.1-12.3.6m-49.3 0-12.3-.6"/>
  </g>
  <path fill="#0C4076" stroke="#21231E" d="M257.1 58.1a9.1 9.1 0 0 1 6.5 15.5 9.1 9.1 0 0 1-15.5-6.5c0-4.9 4-9 9-9z"/>
  <g fill="#EDB92E" stroke="#21231E">
    <path d="M258.8 47.6c.9 0 1.6-.8 1.6-1.6 0-.9-.7-1.6-1.6-1.6 0-.9-.8-1.6-1.6-1.6-.9 0-1.6.7-1.6 1.6-.9 0-1.6.8-1.6 1.6 0 .9.7 1.6 1.6 1.6V51h-2.9c0-.6-.3-1.1-.8-1.4-.5-.3-1.1-.3-1.6 0s-.8.8-.8 1.4c-.9 0-1.6.7-1.6 1.6 0 .9.7 1.6 1.6 1.6 0 .9.7 1.7 1.6 1.7.9 0 1.7-.7 1.7-1.6h2.9v11.2h3.3V54.2h2.9c0 .9.8 1.6 1.6 1.6.9 0 1.6-.7 1.6-1.6.9 0 1.6-.7 1.6-1.6 0-.9-.7-1.6-1.6-1.6 0-.9-.8-1.6-1.6-1.6-.9 0-1.6.7-1.6 1.6H259v-3.4z"/>
    <path d="m257.1 58.1 1.6.2v7.1h-3.3v-7.1l1.7-.2z"/>
    <path d="M266 65.4c.2 1 .2 2.1.1 3.1l-9-.2-9 .2-.1-1.3.2-1.8a258.4 258.4 0 0 1 17.8 0z"/>
  </g>


  <g stroke="#21231E">
    <path fill="#EDB92E" d="M320 114.2c1-2.2.2-5.2-.1-5.9-.2-.3.3-1.1.5-1.4 6.8-9.6 6.9-10.4 2.2-14a82.4 82.4 0 0 0-20.6-8.5c-1.4-1.1-2.3-2.5-3.6-3.8 13.2.9 27.4 6.2 34.6 12.4 3.8 3.3-.8 9.9-6.5 20-3.5 2.6-5.2 3.7-6.5 1.2z"/>
    <path fill="none" d="m322.1 115 .7-2.5a8 8 0 0 0-.3-4.3 65 65 0 0 0 4.6-7c.9-1.7 1.6-3.6 1.1-5.5-.6-2.1-2.4-3.5-4-4.7a43.3 43.3 0 0 0-21.2-7.6"/>
    <path fill="#EDB92E" d="m265.3 72.5-.5.7s.5-.5.8-.5c.6 0 .9.8.9 2.7l-.1 1.4c17.5-.4 27.8 2.2 30.5 7.3 2.2 4.2-1.5 11-7.2 18.9-.7 1-.7.9 0 1.7 1 1.1 2 3 1.2 4.7 3.4 1.9 7.5 2.3 11 .8.6-1.6 1.9-2.3 2.9-3 .2-.1 1-.5 1-.8l5.3-16.6c5.1-16-45.8-17.3-45.8-17.3zm-71 41.7c-1-2.2-.2-5.2.1-5.9.2-.3-.3-1.1-.5-1.4-6.8-9.6-6.9-10.4-2.2-14a81.7 81.7 0 0 1 20.7-8.5c1.4-1.1 2.3-2.5 3.6-3.8A65.5 65.5 0 0 0 181.4 93c-3.8 3.3.8 9.9 6.5 20 3.4 2.6 5 3.7 6.4 1.2z"/>
    <path fill="none" d="m192.2 115-.7-2.5a8 8 0 0 1 .3-4.3 65 65 0 0 1-4.6-7c-.9-1.7-1.6-3.6-1.1-5.5.6-2.1 2.4-3.5 4-4.7 1.9-1.5 4.5-2.8 7.2-3.9a43.3 43.3 0 0 1 14-3.7"/>
    <path fill="#EDB92E" d="M248.9 72.5c-.5-.1-1 1-1.1 2.9l.1 1.4c-17.4-.4-27.8 2.2-30.5 7.3-2.2 4.2 1.5 11 7.2 18.9.7 1 .7.9 0 1.7-.9 1.1-2 3-1.2 4.7a12.6 12.6 0 0 1-11 .8c-.6-1.6-1.9-2.3-2.9-3-.2-.1-1-.5-1-.8l-5.3-16.6c-5.1-16 46.3-17.3 45.7-17.3z"/>
    <path fill="none" d="M221.1 109.4c.1-2.3.6-4.2 1.4-5.8C213 91.1 212.3 82.1 220 79a59.9 59.9 0 0 1 27.8-3.8m-36.1 4.6c-5.1 2.8-7.2 5.8-6.7 8.7.1.5 1.6 6 5.1 16.5 2.4 1.6 4.1 3.1 5.3 4.4m51.2-34.1a59 59 0 0 1 27.6 3.8c7.8 3.1 7 12.1-2.5 24.6.9 1.6 1.3 3.5 1.4 5.8m5.8 0c1.2-1.3 2.9-2.8 5.3-4.4 3.5-10.6 5-16 5.1-16.5.5-3-1.6-5.9-6.7-8.7"/>
    <path fill="#EDB92E" d="M250.1 72.9c-1.9-1.2-2.3.7-2.2 2.5.2 6.9 1.5 13.5-.4 22-.8 3.4-2 5.3-.8 6 3 1.7 4.4 3.2 3.9 4 .9 1.7 3.1 1.4 6.5.8 3.4.5 5.6.9 6.5-.8-.5-.8.9-2.3 3.9-4 1.2-.7 0-2.6-.8-6-1.9-8.5-.5-15.1-.4-22 0-1.8-.3-3.7-2.2-2.5a15 15 0 0 1-14 0z"/>
    <path fill="none" d="M250.7 106.9c.4-.2.6-.1.8-.1 1.3.4 1.9.3 1.6 0a11.6 11.6 0 0 0-4.5-5.1 64.7 64.7 0 0 0 1.4-26.8c-.1-1.6-.4-2.4-1.4-2.3m15 34.3c-.4-.2-.6-.1-.8-.1-1.3.4-1.9.3-1.6 0 1.4-2.6 2.9-4.3 4.5-5.1a64.7 64.7 0 0 1-1.4-26.8c.1-1.6.3-2.3 1.4-2.3"/>
  </g>

  <g fill="#FFF" stroke="#21231E">
    <path d="M216.4 102.7a3.4 3.4 0 1 1 0 6.7 3.5 3.5 0 0 1-3.4-3.3 3.5 3.5 0 0 1 3.4-3.4zm-28.6 7.1c1.7 0 3.1 1.4 3.1 3.1 0 1.7-1.4 3.1-3.1 3.1a3.1 3.1 0 0 1-3.1-3.1c0-1.7 1.4-3.1 3.1-3.1z"/>
    <path d="M182 98.3c1.7 0 3.1 1.4 3.1 3.1 0 1.7-1.4 3.1-3.1 3.1a3.1 3.1 0 0 1-3.1-3.1c0-1.7 1.4-3.1 3.1-3.1zm2.8 5.8c1.1 0 2.2.6 2.7 1.5a3 3 0 0 1 0 3.2c-.6 1-1.6 1.6-2.7 1.5a3.1 3.1 0 0 1-3.1-3.1c.1-1.7 1.4-3.1 3.1-3.1zm18.7-26.3c1.8 0 3.2 1.4 3.2 3.2 0 1.8-1.4 3.2-3.2 3.2a3.2 3.2 0 0 1-3.2-3.2c0-1.7 1.5-3.2 3.2-3.2zm6.4-2c1.8 0 3.2 1.5 3.2 3.2s-1.4 3.2-3.2 3.2c-1.8 0-3.2-1.4-3.2-3.2s1.4-3.2 3.2-3.2zm34.9-7.5c1.8 0 3.2 1.4 3.2 3.2 0 1.8-1.4 3.2-3.2 3.2a3.2 3.2 0 0 1-3.2-3.2c0-1.7 1.5-3.2 3.2-3.2z"/>
    <path d="M238.2 68.3a3 3 0 0 1 2.8 1.6 3.2 3.2 0 0 1-2.8 4.9 3.2 3.2 0 0 1-3.2-3.2c0-1.8 1.4-3.3 3.2-3.3zm-6.6.5c.9 0 1.7.3 2.3.9.6.6.9 1.4.9 2.3 0 1.8-1.4 3.2-3.2 3.2a3.2 3.2 0 0 1-3.2-3.2c0-.9.3-1.7.9-2.3.6-.5 1.5-.9 2.3-.9z"/>
    <path d="M225.5 70c1.8 0 3.2 1.4 3.2 3.2 0 1.3-.8 2.5-2 3s-2.6.2-3.5-.7a3.2 3.2 0 0 1-.7-3.5c.5-1.2 1.7-2 3-2zm-40.1 16.6c1.8 0 3.2 1.4 3.2 3.2 0 1.8-1.4 3.2-3.2 3.2a3.2 3.2 0 0 1-3.2-3.2c0-1.7 1.5-3.2 3.2-3.2z"/>
    <path d="M181.2 91.9c1.8 0 3.2 1.4 3.2 3.2 0 1.8-1.5 3.2-3.2 3.2a3.2 3.2 0 0 1-3.2-3.2c-.1-1.8 1.4-3.2 3.2-3.2zm16.1-11.7c1.3 0 2.5.8 3 2s.2 2.6-.7 3.5c-.9.9-2.3 1.2-3.5.7-1.2-.5-2-1.7-2-3 0-1.8 1.4-3.2 3.2-3.2zm-6.3 2.9c.9 0 1.7.3 2.3.9.6.6.9 1.4.9 2.3 0 1.3-.8 2.5-2 3s-2.6.2-3.5-.7a3.2 3.2 0 0 1-.7-3.5c.5-1.2 1.7-2 3-2zm22.8 14.1c1.9 0 3.4 1.5 3.4 3.4s-1.5 3.4-3.4 3.4a3.4 3.4 0 0 1-3.4-3.4 3.5 3.5 0 0 1 3.4-3.4z"/>
    <path d="M211.4 91.6c1.8 0 3.3 1.5 3.3 3.4s-1.5 3.3-3.3 3.4c-1.8 0-3.3-1.5-3.3-3.4s1.5-3.3 3.3-3.4zm8-19.6c1.8 0 3.2 1.4 3.2 3.2 0 1.8-1.5 3.2-3.2 3.2a3.2 3.2 0 0 1-3.2-3.2c0-1.8 1.4-3.2 3.2-3.2z"/>
    <path d="M214 74.4a3.4 3.4 0 1 1 0 6.7 3.5 3.5 0 0 1-3.4-3.3c0-.9.4-1.7 1-2.4.6-.6 1.5-1 2.4-1z"/>
    <path d="M210 79.2c1.9 0 3.4 1.5 3.4 3.4S211.9 86 210 86a3.4 3.4 0 0 1-3-5.1 3.3 3.3 0 0 1 3-1.7z"/>
    <path d="M209.3 85.2a3.4 3.4 0 0 1 3 5.1c-.6 1-1.8 1.7-3 1.7a3.4 3.4 0 0 1-3.3-3.4c0-1.9 1.5-3.4 3.3-3.4zM257.1 99c2 0 3.6 1.6 3.6 3.6s-1.6 3.6-3.6 3.6-3.6-1.6-3.6-3.6 1.7-3.6 3.6-3.6z"/>
    <path d="M257.1 92.7c1.5 0 2.8.9 3.3 2.2.6 1.3.3 2.9-.8 3.9-1 1-2.6 1.3-3.9.8a3.7 3.7 0 0 1-2.2-3.3c0-2 1.7-3.6 3.6-3.6z"/>
    <path d="M257.1 69.7c2 0 3.6 1.6 3.6 3.6s-1.6 3.5-3.6 3.5-3.6-1.6-3.6-3.5c0-2 1.7-3.6 3.6-3.6zm0 17c2 0 3.6 1.6 3.6 3.6s-1.6 3.6-3.6 3.6-3.6-1.6-3.6-3.6 1.7-3.6 3.6-3.6z"/>
    <path d="M257.1 75c2 0 3.5 1.6 3.5 3.6s-1.6 3.6-3.5 3.6c-2 0-3.5-1.6-3.5-3.6s1.6-3.6 3.5-3.6z"/>
    <path d="M257.1 80.7c2 0 3.6 1.6 3.6 3.6s-1.6 3.6-3.6 3.6-3.6-1.6-3.6-3.6 1.7-3.6 3.6-3.6zm40.7 22c-.9 0-1.7.4-2.4 1-.6.6-1 1.5-1 2.4 0 1.8 1.5 3.3 3.4 3.3 1.8 0 3.3-1.5 3.4-3.3 0-1.9-1.5-3.4-3.4-3.4zm28.7 7.1a3.1 3.1 0 0 0-3.1 3.1c0 1.1.6 2.2 1.5 2.8a3 3 0 0 0 3.2 0 3 3 0 0 0 1.5-2.8c0-.8-.3-1.6-.9-2.2-.6-.6-1.4-.9-2.2-.9z"/>
    <path d="M332.3 98.3a3.1 3.1 0 0 0-3.1 3.1c0 1.7 1.4 3.1 3.1 3.1 1.7 0 3.1-1.4 3.1-3.1 0-1.7-1.4-3.1-3.1-3.1zm-2.9 5.8c-1.1 0-2.2.6-2.7 1.5a3 3 0 0 0 0 3.2c.6 1 1.6 1.6 2.7 1.5 1.7 0 3.1-1.4 3.1-3.1a3 3 0 0 0-3.1-3.1zm-18.7-26.3c-1.8 0-3.2 1.4-3.2 3.2s1.4 3.2 3.2 3.2c1.8 0 3.2-1.5 3.2-3.2s-1.4-3.2-3.2-3.2z"/>
    <path d="M304.4 75.8c-1.8 0-3.2 1.5-3.2 3.2s1.5 3.2 3.2 3.2c1.8 0 3.2-1.4 3.2-3.2s-1.4-3.2-3.2-3.2zm-35-7.5a3.2 3.2 0 0 0-3.2 3.2c0 1.8 1.4 3.2 3.2 3.2 1.8 0 3.2-1.4 3.2-3.2.1-1.7-1.4-3.2-3.2-3.2zm6.6 0a3.2 3.2 0 0 0-3.2 3.2c0 1.8 1.4 3.2 3.2 3.2 1.8 0 3.2-1.4 3.2-3.2.1-1.7-1.4-3.2-3.2-3.2zm6.7.5c-.9 0-1.7.3-2.3.9-.6.6-.9 1.4-.9 2.3a3.3 3.3 0 0 0 3.2 3.1c1.7 0 3.2-1.4 3.2-3.1 0-.9-.3-1.7-.9-2.3-.7-.5-1.5-.9-2.3-.9z"/>
    <path d="M288.7 70a3.2 3.2 0 0 0-3.2 3.2c0 1.8 1.4 3.2 3.2 3.2 1.8 0 3.2-1.4 3.2-3.2.1-1.8-1.4-3.2-3.2-3.2zm40.1 16.6a3.2 3.2 0 0 0-3.2 3.2c0 1.8 1.4 3.2 3.2 3.2s3.2-1.4 3.2-3.2c.1-1.7-1.4-3.2-3.2-3.2z"/>
    <path d="M323.3 83.1c-1.3 0-2.5.8-3 2s-.2 2.6.7 3.5c.9.9 2.3 1.2 3.5.7a3.2 3.2 0 0 0-1.2-6.2zm9.8 8.8a3.2 3.2 0 0 0-3.2 3.2c0 1.8 1.5 3.2 3.2 3.2 1.8 0 3.2-1.4 3.2-3.2.1-1.8-1.4-3.2-3.2-3.2zM317 80.2c-1.3 0-2.5.8-3 2s-.2 2.6.7 3.5c.9.9 2.3 1.2 3.5.7a3.2 3.2 0 0 0-1.2-6.2zm-16.6 17a3.4 3.4 0 1 0 0 6.8c1.8 0 3.3-1.5 3.3-3.4s-1.4-3.3-3.3-3.4z"/>
    <path d="M302.9 91.6a3.4 3.4 0 0 0-3.4 3.4c0 .9.4 1.7 1 2.4.6.6 1.5 1 2.4 1a3.4 3.4 0 1 0 0-6.8z"/>
    <circle cx="294.8" cy="75.2" r="3.2" transform="rotate(-9 294.8 75.2)"/>
    <path d="M300.3 74.4a3.4 3.4 0 0 0-3.4 3.4 3.4 3.4 0 1 0 6.7 0c0-1.8-1.5-3.3-3.3-3.4z"/>
    <path d="M304.3 79.2a3.4 3.4 0 0 0-3 5.1c.6 1 1.8 1.7 3 1.7 1.8 0 3.3-1.5 3.3-3.4s-1.5-3.4-3.3-3.4z"/>
    <path d="M305 85.2a3.4 3.4 0 0 0-3 5.1c.6 1 1.8 1.7 3 1.7 1.8 0 3.3-1.5 3.3-3.4-.1-1.9-1.5-3.4-3.3-3.4zm5.6 30c-4-1.3-4.8 6.3-4.4 8.1.5 2.4 1.5 2.7 3.3 1.1 1.5-1.3 5.2-7.9 1.1-9.2zm-33.6-4.5c-4.2-.3-3.2 7.3-2.3 8.9 1.1 2.2 2.1 2.3 3.5.2 1-1.5 3-8.8-1.2-9.1zm-73.4 4.5c4-1.3 4.8 6.3 4.4 8.1-.5 2.4-1.5 2.7-3.3 1.1-1.4-1.3-5.1-7.9-1.1-9.2zm33.7-4.5c4.2-.3 3.2 7.3 2.3 8.9-1.1 2.2-2.1 2.3-3.5.2-1-1.5-3.1-8.8 1.2-9.1z"/>
  </g>

  <path fill="#EDB92E" stroke="#21231E" d="M219.5 107.8c.7.9.6 1.1 1 1.3.5.3 1.2.2 1.8 0 2.6-1 2.6 1 1.8 3.4-.4 1.1-1.5 2.3-1.9 3.3-.5.9-.4 1.6-.6 1.9l-2.1.3-2.1.3c-.3-.2-.5-.8-1.4-1.6-.9-.7-2.3-1.5-3.1-2.4-1.6-1.8-2.5-3.6.1-3.5.6 0 1.3-.1 1.5-.5.2-.3.1-.5.3-1.5.1-.7.4-1.2.7-1.6.3-.4.8-.3 1.2-.4.4-.1.8-.3 1.3-.1.5.1 1 .5 1.5 1.1z"/>
  <path fill="#EDB92E" d="M269.7 115.5c-.8-.5-1-.4-1.3-.7-.3-.4-.3-1.2-.2-1.8.4-2.8-1.2-2.4-3.1-1.2-.9.6-1.9 2-2.7 2.8-.8.7-1.5.8-1.7 1.1v4.8c.2.3.9.4 1.7 1.1.8.7 1.7 2.2 2.7 2.8 1.9 1.2 3.5 1.6 3.1-1.2-.1-.7-.1-1.4.2-1.8.3-.3.4-.2 1.3-.7.5-.3.9-.7 1.2-1.2.3-.4.1-.9.1-1.4 0-.5.1-.9-.1-1.4-.3-.5-.7-.9-1.2-1.2z"/>
  <path fill="#21231E" d="m260.6 117.6.1-.5a9 9 0 0 0 5-2.3c-.9 1.5-2.9 2.5-5.1 2.8m0 .9.1.5c2 .2 3.6 1 5 2.3-.9-1.5-2.9-2.5-5.1-2.8"/>
  <path fill="#EDB92E" d="M268.2 111.7c-.6.2-1.3.5-1.8 1-.8.8-.3 2.2.8 3.5.3.4.5 1.1.5 1.9 0 .7-.2 1.4-.5 1.8-1.1 1.3-1.6 2.7-.8 3.5.6.5 1.2.8 1.8 1v-1.3c-.1-.7-.1-1.4.2-1.8.3-.3.4-.2 1.3-.7.5-.3.9-.7 1.2-1.2.3-.4.1-.9.1-1.4 0-.5.1-.9-.1-1.4l-1.2-1.2c-.8-.5-1-.4-1.3-.7-.3-.4-.3-1.2-.2-1.8v-1.2z"/>
  <path fill="none" stroke="#21231E" d="M268.2 111.7c-.6.2-1.3.5-1.8 1-.8.8-.3 2.2.8 3.5.3.4.5 1.1.5 1.9 0 .7-.2 1.4-.5 1.8-1.1 1.3-1.6 2.7-.8 3.5.6.5 1.2.8 1.8 1v-1.3c-.1-.7-.1-1.4.2-1.8.3-.3.4-.2 1.3-.7.5-.3.9-.7 1.2-1.2.3-.4.1-.9.1-1.4s.1-.9-.1-1.4l-1.2-1.2c-.8-.5-1-.4-1.3-.7-.3-.4-.3-1.2-.2-1.8v-1.2z"/>
  <path fill="#EDB92E" d="M257.1 114a4 4 0 0 1 4.1 4.1 4 4 0 0 1-4.1 4.1 4 4 0 0 1-4.1-4.1 4.2 4.2 0 0 1 4.1-4.1z"/>
  <path fill="#EDB92E" stroke="#21231E" d="m190.5 116.7-.2 1c-1.5.3-2.8.4-3.8.3 1.8-1.7 3.1-2.1 4-1.3z"/>
  <path fill="#EDB92E" stroke="#21231E" d="M190.4 114.3c.9.2 1 .4 1.4.4.5.1 1.2.1 1.7-.4 2-1.2 2.1 1 1.3 2.6-.6 1.2-.3 2.5.3 3.5.6 1.2.5 1.7.1 2.1l-.9.6c-.5.6-1 .5-1-.3-2-.8-2.7-2.8-3.3-4.5-1-2.4-4.2-3 .4-4z"/>
  <path fill="#EDB92E" stroke="#21231E" d="M191.2 114.4c1.8.6 2-.4 3.1-.3-.5 2.7-.9 4.1-3.8 2.6-1.5-.8-3.5.4-3.9 1.2-.1.3-1-.3-1.4-1.1-1.3-2.9 3.6-3.2 6-2.4zm7.3 13c1.3-.4 3.3 2.4 3.7 2.4.6-1.6-.7-5.5-2.9-8.5-1.5-.5-1.7-1.5-2-3.8-.1-.7-1.4-.2-1.4 1s-.1 1.9.2 3c.1.4 0 .8-.4 1.2 2.3 1 2.9 2.1 2.8 4.7z"/>
  <path fill="#EDB92E" stroke="#21231E" d="M197.3 117.6c-.2.5-.3 1-.3 1.8 0 .6.2 1.2.6 1.7.4.5 1 1 1.6 1.3.4.2.8.9 1.2 1.6.4.7.6 1.5.6 2.1 0 1.9.4 3.5 1.3 3.8.6.2.8.2 1.2.1-.1-.3-.1-.8-.4-1.3-.4-.6-.7-1.3-.8-1.9 0-.5-.3-.8-.1-1.7.1-.6.5-.8.4-1.4-.1-1.1-1-3.2-2.2-3.2-1.2 0-1.8-.1-2.5-1.8-.1-.6-.4-.9-.6-1.1z"/>
  <path fill="#EDB92E" d="M259.7 105.5c.5.8.4 1 .7 1.3.4.3 1.2.3 1.8.2 2.8-.4 2.4 1.2 1.2 3.1-.6.9-2 1.9-2.8 2.7-.7.8-.8 1.5-1.1 1.7h-4.8c-.3-.2-.4-.9-1.1-1.7-.7-.8-2.2-1.7-2.8-2.7-1.2-1.9-1.6-3.5 1.2-3.1.7.1 1.4.1 1.8-.2.3-.3.2-.4.7-1.3.3-.5.7-.9 1.2-1.2.4-.3.9-.1 1.4-.1.5 0 .9-.1 1.4.1.5.3.9.7 1.2 1.2z"/>
  <path fill="none" stroke="#21231E" d="M259.7 105.5c.5.8.4 1 .7 1.3.4.3 1.2.3 1.8.2 2.8-.4 2.4 1.2 1.2 3.1-.6.9-2 1.9-2.8 2.7-.7.8-.8 1.5-1.1 1.7h-4.8c-.3-.2-.4-.9-1.1-1.7-.7-.8-2.2-1.7-2.8-2.7-1.2-1.9-1.6-3.5 1.2-3.1.7.1 1.4.1 1.8-.2.3-.3.2-.4.7-1.3.3-.5.7-.9 1.2-1.2.4-.3.9-.1 1.4-.1.5 0 .9-.1 1.4.1.5.3.9.7 1.2 1.2z"/>
  <path fill="#21231E" d="m257.6 114.6.5-.1c.2-2 1-3.6 2.3-5-1.5.9-2.5 2.9-2.8 5.1m-.9 0-.5-.1c-.2-2-1-3.6-2.3-5 1.5.9 2.5 2.9 2.8 5.1"/>
  <path fill="#EDB92E" d="M244.6 115.5c.8-.5 1-.4 1.3-.7.3-.4.3-1.2.2-1.8-.4-2.8 1.2-2.4 3.1-1.2.9.6 1.9 2 2.7 2.8.8.7 1.5.8 1.7 1.1v4.8c-.2.3-.9.4-1.7 1.1-.8.7-1.7 2.2-2.7 2.8-1.9 1.2-3.5 1.6-3.1-1.2.1-.7.1-1.4-.2-1.8-.3-.3-.4-.2-1.3-.7-.5-.3-.9-.7-1.2-1.2-.3-.4-.1-.9-.1-1.4 0-.5-.1-.9.1-1.4.3-.5.7-.9 1.2-1.2z"/>
  <path fill="none" stroke="#21231E" d="M244.6 115.5c.8-.5 1-.4 1.3-.7.3-.4.3-1.2.2-1.8-.4-2.8 1.2-2.4 3.1-1.2.9.6 1.9 2 2.7 2.8.8.7 1.5.8 1.7 1.1v4.8c-.2.3-.9.4-1.7 1.1-.8.7-1.7 2.2-2.7 2.8-1.9 1.2-3.5 1.6-3.1-1.2.1-.7.1-1.4-.2-1.8-.3-.3-.4-.2-1.3-.7-.5-.3-.9-.7-1.2-1.2-.3-.4-.1-.9-.1-1.4 0-.5-.1-.9.1-1.4.3-.5.7-.9 1.2-1.2z"/>
  <path fill="#21231E" d="m253.6 117.6-.1-.5a9 9 0 0 1-5-2.3c1 1.5 3 2.5 5.1 2.8m0 .9-.1.5c-2 .2-3.6 1-5 2.3 1-1.5 3-2.5 5.1-2.8"/>
  <path fill="#EDB92E" d="M246.1 111.7c.6.2 1.3.5 1.8 1 .8.8.3 2.2-.8 3.5-.3.4-.5 1.1-.5 1.9 0 .7.2 1.4.5 1.8 1.1 1.3 1.6 2.7.8 3.5-.6.5-1.2.8-1.8 1v-1.3c.1-.7.1-1.4-.2-1.8-.3-.3-.4-.2-1.3-.7-.5-.3-.9-.7-1.2-1.2-.3-.4-.1-.9-.1-1.4 0-.5-.1-.9.1-1.4l1.2-1.2c.8-.5 1-.4 1.3-.7.3-.4.3-1.2.2-1.8v-1.2z"/>
  <path fill="none" stroke="#21231E" d="M246.1 111.7c.6.2 1.3.5 1.8 1 .8.8.3 2.2-.8 3.5-.3.4-.5 1.1-.5 1.9 0 .7.2 1.4.5 1.8 1.1 1.3 1.6 2.7.8 3.5-.6.5-1.2.8-1.8 1v-1.3c.1-.7.1-1.4-.2-1.8-.3-.3-.4-.2-1.3-.7-.5-.3-.9-.7-1.2-1.2-.3-.4-.1-.9-.1-1.4s-.1-.9.1-1.4l1.2-1.2c.8-.5 1-.4 1.3-.7.3-.4.3-1.2.2-1.8v-1.2z"/>
  <path fill="#EDB92E" d="M269.7 120.6c-.8.5-1 .4-1.3.7-.3.4-.3 1.2-.2 1.8.4 2.8-1.2 2.4-3.1 1.2-.9-.6-1.9-2-2.7-2.8-.8-.7-1.5-.8-1.7-1.1v-4.8c.2-.3.9-.4 1.7-1.1.8-.7 1.7-2.2 2.7-2.8 1.9-1.2 3.5-1.6 3.1 1.2-.1.7-.1 1.4.2 1.8.3.3.4.2 1.3.7.5.3.9.7 1.2 1.2.3.4.1.9.1 1.4 0 .5.1.9-.1 1.4-.3.5-.7.9-1.2 1.2z"/>
  <path fill="none" stroke="#21231E" d="M269.7 120.6c-.8.5-1 .4-1.3.7-.3.4-.3 1.2-.2 1.8.4 2.8-1.2 2.4-3.1 1.2-.9-.6-1.9-2-2.7-2.8-.8-.7-1.5-.8-1.7-1.1v-4.8c.2-.3.9-.4 1.7-1.1.8-.7 1.7-2.2 2.7-2.8 1.9-1.2 3.5-1.6 3.1 1.2-.1.7-.1 1.4.2 1.8.3.3.4.2 1.3.7.5.3.9.7 1.2 1.2.3.4.1.9.1 1.4 0 .5.1.9-.1 1.4-.3.5-.7.9-1.2 1.2z"/>
  <path fill="#21231E" d="m260.6 118.5.1.5c2 .2 3.6 1 5 2.3-.9-1.5-2.9-2.5-5.1-2.8m0-.9.1-.5a9 9 0 0 0 5-2.3c-.9 1.5-2.9 2.5-5.1 2.8"/>
  <path fill="#EDB92E" d="M268.2 124.4c-.6-.2-1.3-.5-1.8-1-.8-.8-.3-2.2.8-3.5.3-.4.5-1.1.5-1.9 0-.7-.2-1.4-.5-1.8-1.1-1.3-1.6-2.7-.8-3.5.6-.5 1.2-.8 1.8-1v1.3c-.1.7-.1 1.4.2 1.8.3.3.4.2 1.3.7.5.3.9.7 1.2 1.2.3.4.1.9.1 1.4 0 .5.1.9-.1 1.4l-1.2 1.2c-.8.5-1 .4-1.3.7-.3.4-.3 1.1-.2 1.8v1.2z"/>
  <path fill="none" stroke="#21231E" d="M268.2 124.4c-.6-.2-1.3-.5-1.8-1-.8-.8-.3-2.2.8-3.5.3-.4.5-1.1.5-1.9 0-.7-.2-1.4-.5-1.8-1.1-1.3-1.6-2.7-.8-3.5.6-.5 1.2-.8 1.8-1v1.3c-.1.7-.1 1.4.2 1.8.3.3.4.2 1.3.7.5.3.9.7 1.2 1.2.3.4.1.9.1 1.4s.1.9-.1 1.4l-1.2 1.2c-.8.5-1 .4-1.3.7-.3.4-.3 1.1-.2 1.8v1.2z"/>
  <path fill="#EDB92E" stroke="#21231E" d="M257.1 114a4 4 0 0 1 4.1 4.1 4 4 0 0 1-4.1 4.1 4 4 0 0 1-4.1-4.1 4.2 4.2 0 0 1 4.1-4.1z"/>
  <path fill="#EDB92E" stroke="#21231E" d="M257.1 115.1a3 3 0 0 1 3 3 3 3 0 0 1-3 3 3 3 0 0 1-3-3 3 3 0 0 1 3-3zm-33.7-6.2c-.1.7-.2 1.5-.6 2.3-.6 1.1-1.9.7-3.4-.4-.5-.3-1.2-.4-1.8-.3-.7.1-1.3.4-1.5.8-.8 1.4-1.9 2.2-2.8 1.4-.6-.5-1-1.2-1.4-1.8l1.1-.2c.6 0 1.3-.1 1.5-.5.2-.4.1-.5.3-1.5.1-.7.4-1.2.7-1.6.3-.4.8-.3 1.2-.4.4-.1.8-.3 1.3-.1.5.2 1 .7 1.4 1.2.7.9.6 1.1 1 1.4.5.3 1.2.2 1.8 0l1.2-.3zm-14 10.1c.4-.5.6-.4.6-.7.1-.4-.1-1-.4-1.6-1.2-2.4.1-2.2 1.9-1.3.5.2 1 .7 1.5 1.1l1.5 1.2c.9.6 1.4.7 1.7.9l.8 2.2.8 2.2c-.1.3-.6.3-.9 1-.4.7-.7 1.9-1.1 2.5-.7.9-1.3 1.4-1.8 1.3-.5-.1-.8-.8-.9-2.3 0-.6-.4-1.2-.8-1.6-.3-.3-.4-.2-1.1-.6a4 4 0 0 1-1.2-1 3 3 0 0 1-.5-1.2c-.2-.4-.4-.8-.4-1.2-.1-.3.1-.6.3-.9z"/>
  <path fill="#EDB92E" stroke="#21231E" d="M209.2 115.1c.5.2.9.4 1.5.9.5.4.7.9.8 1.5.1.6 0 1.3-.2 2-.1.4 0 1.2.3 1.9a6 6 0 0 0 1 1.8c1.3 1.3 2.2 2.6 1.8 3.5-.2.6-.4.7-.8.9l-.7-1.1c-.2-.7-.4-1.4-.8-1.8-.3-.3-.4-.7-1.2-1.2-.5-.3-.9-.2-1.3-.6-.7-.8-1.5-2.8-.7-3.7.8-.9 1.1-1.4.4-3l-.1-1.1zm22.6 6.5c-.7.6-.8.5-1 .8-.2.4-.1 1.1.1 1.7.8 2.5-.7 2.3-2.6 1.3-.9-.5-2-1.7-2.8-2.3-.8-.6-1.4-.6-1.6-.9l-.5-2.2-.5-2.3c.1-.3.7-.5 1.3-1.3.6-.8 1.1-2.4 1.9-3.2 1.5-1.6 3-2.3 3.1.8 0 .7.2 1.5.6 1.9.3.3.4.2 1.3.6.5.2 1 .6 1.3 1 .3.4.3.9.3 1.4.1.5.3.9.1 1.4-.3.5-.6 1-1 1.3z"/>
  <path fill="#21231E" d="m223.4 120.5.2.4a8 8 0 0 1 4.9 1.7 7.6 7.6 0 0 0-5.1-2.1m-.2-.8v-.5c1.7-.5 3-1.4 4.1-2.8-.6 1.5-2.3 2.8-4.1 3.3"/>
  <path fill="#EDB92E" stroke="#21231E" d="M231 125.3c-.6-.2-1.2-.4-1.8-.8-.9-.7-.6-2 .1-3.3a3 3 0 0 0 .1-1.9c-.1-.7-.4-1.4-.8-1.8-1.2-1.2-2-2.5-1.4-3.4.4-.6 1-1 1.5-1.4l.2 1.3c0 .7.1 1.5.5 1.9.3.3.4.2 1.3.6.6.3 1 .6 1.3 1 .3.4.3.9.3 1.4.1.5.3.9.1 1.4-.2.5-.5.9-.9 1.3-.7.6-.8.5-1 .8-.2.4-.1 1.1.1 1.7.4.5.4.9.4 1.2zm92.7-8.6.2 1c1.5.3 2.8.4 3.8.3-1.7-1.7-3-2.1-4-1.3z"/>
  <path fill="#EDB92E" stroke="#21231E" d="M323.9 114.3c-.9.2-1 .4-1.4.4-.5.1-1.2.1-1.7-.4-2-1.2-2.1 1-1.3 2.6.6 1.2.3 2.5-.3 3.5-.6 1.2-.5 1.7 0 2.1l.9.6c.5.6 1 .5 1-.3 2-.8 2.7-2.8 3.3-4.5.8-2.4 4-3-.5-4z"/>
  <path fill="#EDB92E" stroke="#21231E" d="M323.1 114.4c-1.8.6-2-.4-3.1-.3.5 2.7.9 4.1 3.8 2.6 1.5-.8 3.5.4 3.9 1.2.1.3 1-.3 1.4-1.1 1.3-2.9-3.6-3.2-6-2.4zm-7.3 13c-1.3-.4-3.3 2.4-3.7 2.4-.6-1.6.7-5.5 2.9-8.5 1.5-.5 1.7-1.5 2-3.8.1-.7 1.4-.2 1.4 1s.1 1.9-.2 3c-.1.4-.1.8.4 1.2-2.3 1-2.9 2.1-2.8 4.7z"/>
  <path fill="#EDB92E" stroke="#21231E" d="M317 117.6c.2.5.3 1 .3 1.8 0 .6-.2 1.2-.6 1.7-.4.5-1 1-1.6 1.3-.4.2-.8.9-1.2 1.6-.4.7-.6 1.5-.6 2.1-.1 1.9-.4 3.5-1.3 3.8-.6.2-.8.2-1.2.1.1-.3.1-.8.4-1.3.4-.6.7-1.3.8-1.9 0-.5.3-.8.1-1.7-.1-.6-.5-.8-.4-1.4.1-1.1 1-3.2 2.2-3.2 1.2 0 1.8-.1 2.4-1.8.2-.6.5-.9.7-1.1z"/>
  <path fill="#EDB92E" stroke="#21231E" d="M321.6 122.1c-.3-.3-.7-.5-1.1-.6-.6-.3-1.3-.3-2-.1-3 .9-4.3 6.1-1 7.4.6.1 1.2-.5 1.8-1.8a9.2 9.2 0 0 1 2.2-3.5c.4-.7.4-1.1.1-1.4z"/>
  <path fill="#EDB92E" stroke="#21231E" d="M320.1 122.4c-2.8-1.1-4.9 4.3-2.3 5.3 1.4.6 1.6-1.2 1.8-2.2.5-1.3 3.3-2 .5-3.1z"/>
  <path fill="#21231E" d="m321.1 121.6-.4-.2c.8-1.1 1-2.2.7-3.3.7.9.5 2.3-.3 3.5"/>
  <path fill="#EDB92E" stroke="#21231E" d="M294.8 107.8c-.7.9-.6 1.1-1 1.3-.5.3-1.2.2-1.8 0-2.6-1-2.6 1-1.8 3.4.4 1.1 1.5 2.3 1.9 3.3.5.9.4 1.6.6 1.9l2.1.3 2.1.3c.3-.2.5-.8 1.4-1.6.9-.7 2.3-1.5 3.1-2.4 1.6-1.8 2.5-3.6-.1-3.5-.6 0-1.3-.1-1.5-.5-.2-.3-.1-.5-.3-1.5-.1-.7-.4-1.2-.7-1.6-.3-.4-.8-.3-1.2-.4-.4-.1-.8-.3-1.3-.1-.5.1-1 .5-1.5 1.1z"/>
  <path fill="#21231E" d="m294.5 117.9-.4-.1a10 10 0 0 0-.8-5.7c1 1.3 1.4 3.6 1.2 5.8m.7.1h.4c.7-2 1.8-3.6 3.3-5-1.5.9-2.9 2.9-3.7 5"/>
  <path fill="#EDB92E" stroke="#21231E" d="M304.8 119c-.4-.5-.6-.4-.6-.7-.1-.4.1-1 .5-1.6 1.2-2.4-.1-2.2-1.9-1.3l-1.5 1.1-1.5 1.2c-.9.6-1.4.7-1.7.9l-.8 2.2-.8 2.2c.1.3.6.3.9 1 .4.7.7 1.9 1.1 2.5.7.9 1.3 1.4 1.8 1.3.5-.1.8-.8.9-2.3a3 3 0 0 1 .8-1.6c.3-.3.4-.2 1.1-.6a4 4 0 0 0 1.2-1c.3-.4.4-.8.5-1.2.2-.4.4-.8.4-1.2 0-.3-.1-.6-.4-.9z"/>
  <path fill="#21231E" d="m297.4 120.7.2-.5c.9-.1 1.7-.3 2.5-.6s1.6-.8 2.3-1.4a8.4 8.4 0 0 1-5 2.5m-.4.9-.1.5c.8.2 1.4.5 1.9.9s.9 1 1.3 1.6c-.1-.7-.5-1.4-1-1.9s-1.2-.9-2.1-1.1"/>
  <path fill="#EDB92E" stroke="#21231E" d="M305 115.1a5 5 0 0 0-1.5.9c-.5.4-.7.9-.8 1.5-.1.6 0 1.3.2 2 .1.4 0 1.2-.3 1.9s-.6 1.4-1 1.8c-1.3 1.3-2.2 2.6-1.8 3.5.2.6.4.7.8.9l.7-1.1c.2-.7.4-1.4.8-1.8.3-.3.4-.7 1.2-1.2.5-.3.9-.2 1.3-.6.7-.8 1.5-2.8.7-3.7-.8-.9-1.2-1.4-.4-3l.1-1.1zm-22.5 6.5c.7.6.8.5 1 .8.2.4.1 1.1-.1 1.7-.8 2.5.7 2.3 2.6 1.3.9-.5 2-1.7 2.8-2.3.8-.6 1.4-.6 1.6-.9l.5-2.2.5-2.3c-.1-.3-.7-.5-1.2-1.3-.6-.8-1.1-2.4-1.9-3.2-1.5-1.6-3-2.3-3.1.8 0 .7-.1 1.5-.5 1.9-.3.3-.4.2-1.3.6-.6.3-1 .6-1.3 1-.3.4-.3.9-.3 1.4-.1.5-.3.9-.1 1.4.1.5.4 1 .8 1.3z"/>
  <path fill="#21231E" d="m290.9 120.5-.2.4a8 8 0 0 0-4.9 1.7c1.1-1.3 3.1-2 5.1-2.1m.1-.8v-.5c-1.7-.5-3-1.4-4.1-2.8a6.6 6.6 0 0 0 4.1 3.3"/>
  <path fill="#EDB92E" stroke="#21231E" d="M283.2 125.3c.6-.2 1.2-.4 1.8-.8.9-.7.6-2-.1-3.3a3 3 0 0 1-.1-1.9c.1-.7.4-1.4.8-1.8 1.2-1.2 2-2.5 1.4-3.5-.4-.6-1-1-1.5-1.4l-.2 1.3c0 .7-.2 1.5-.5 1.9-.3.3-.4.2-1.3.6-.6.3-1 .6-1.3 1-.3.4-.3.9-.3 1.4-.1.5-.3.9-.1 1.4.2.5.5.9.9 1.3.7.6.8.5 1 .8.2.4.1 1.1-.1 1.7a3 3 0 0 0-.4 1.3zm11.7-8.8c-2.1-.1-4.2 1.7-4.5 4-.3 2.3 1.2 4 3.2 4s3.9-1.6 4.3-3.8c.5-2.2-.9-4.1-3-4.2z"/>
  <path fill="#EDB92E" stroke="#21231E" d="M294.7 117.6c-1.6-.1-3 1.3-3.3 2.9-.2 1.7.8 3 2.4 3 1.5 0 2.9-1.2 3.2-2.8.3-1.6-.7-3-2.3-3.1zm-3.9-8.7c.1.7.2 1.5.6 2.3.6 1.1 1.9.7 3.4-.4.5-.3 1.2-.4 1.8-.3.7.1 1.3.4 1.5.8.8 1.4 1.9 2.2 2.8 1.4.6-.5 1.1-1.2 1.5-1.8l-1.1-.2c-.6 0-1.3-.1-1.5-.5-.2-.4-.1-.5-.3-1.5-.1-.7-.4-1.2-.7-1.6-.3-.4-.8-.3-1.2-.4-.4-.1-.8-.3-1.3-.1a4 4 0 0 0-1.4 1.2c-.7.9-.6 1.1-1 1.4-.5.3-1.2.2-1.8 0l-1.3-.3z"/>
  <path fill="#21231E" d="m216.9 120.7-.2-.5c-.8-.1-1.7-.3-2.5-.6s-1.6-.8-2.3-1.4a8.4 8.4 0 0 0 5 2.5m.3.9.1.5c-.8.2-1.4.5-1.9.9a7 7 0 0 0-1.3 1.6c.1-.7.5-1.4 1-1.9.6-.5 1.3-.9 2.1-1.1m2.6-3.7.4-.1a10 10 0 0 1 .8-5.7c-1 1.3-1.4 3.6-1.2 5.8m-.7.1h-.4c-.7-2-1.9-3.6-3.3-5a11 11 0 0 1 3.7 5m-25.9 3.6.4-.2c-.8-1.1-1-2.2-.7-3.3-.7.9-.5 2.3.3 3.5"/>
  <path fill="#EDB92E" stroke="#21231E" d="M263.5 107c-.2.6-.5 1.3-1 1.8-.8.8-2.2.3-3.5-.8-.4-.3-1.1-.5-1.9-.5-.7 0-1.4.2-1.8.5-1.3 1.1-2.7 1.6-3.5.8-.5-.6-.8-1.2-1-1.8h1.3c.7.1 1.4.1 1.8-.2.3-.3.2-.4.7-1.2.3-.5.7-.9 1.2-1.2.4-.3.9-.1 1.4-.1.5 0 .9-.1 1.4.1l1.2 1.2c.5.8.4 1 .7 1.2.4.3 1.1.3 1.8.2h1.2zm-44.1 9.5c2.1-.1 4.2 1.7 4.5 4 .3 2.3-1.2 4-3.2 4s-3.9-1.6-4.3-3.8c-.5-2.2.8-4.1 3-4.2z"/>
  <path fill="#EDB92E" stroke="#21231E" d="M219.5 117.6c1.6-.1 3 1.3 3.3 2.9.2 1.7-.8 3-2.3 3a3.4 3.4 0 0 1-3.2-2.8c-.3-1.6.7-3 2.2-3.1zm-26.8 4.5c.3-.3.7-.5 1.1-.6.6-.3 1.3-.3 2-.1 3 .9 4.3 6.1 1 7.4-.6.1-1.2-.5-1.8-1.8a9.2 9.2 0 0 0-2.2-3.5c-.4-.7-.5-1.1-.1-1.4z"/>
  <path fill="#EDB92E" stroke="#21231E" d="M194.1 122.4c2.8-1.1 4.9 4.3 2.3 5.3-1.4.6-1.6-1.2-1.8-2.2-.4-1.3-3.2-2-.5-3.1z"/>


  <g stroke="#21231E">
    <path fill="#0C4076" d="M257.1 144.1c3 0 5.4 1.6 5.4 3.6s-2.4 3.6-5.4 3.6c-3 0-5.4-1.6-5.4-3.6s2.5-3.6 5.4-3.6z"/>
    <path fill="#C6363C" d="M230.2 144.9c3-.2 5.5 1.3 5.6 3.3.1 2-2.2 3.7-5.2 3.9-3 .2-5.5-1.3-5.6-3.3-.1-2 2.2-3.7 5.2-3.9z"/>
    <path fill="#0C4076" d="M204.7 146.8c3-.3 5.5 1.1 5.7 3 .2 2-2 3.8-5 4.1-1.9.2-3.1-1.5-3.3-3.3-.2-1.7.6-3.6 2.6-3.8zm52.4-30.6c1 0 1.9.8 1.9 1.9 0 1-.9 1.8-1.9 1.8-1 0-1.9-.8-1.9-1.8.1-1.1.9-1.9 1.9-1.9zm62.7 7c-1.4-.5-3.3 2.7-1.6 3.4 1.2.5 2.1-.2 2.5-1.1.4-1 .1-1.9-.9-2.3zm-25.2-4.5a2 2 0 0 0-2 1.8c-.2 1 .5 1.9 1.5 1.9.9 0 1.8-.8 2-1.8.1-1-.6-1.8-1.5-1.9z"/>
    <path fill="#C6363C" d="M284.1 144.9c-3-.2-5.5 1.3-5.6 3.3-.1 2 2.2 3.7 5.2 3.9 3 .2 5.5-1.3 5.6-3.3 0-2-2.3-3.7-5.2-3.9z"/>
    <path fill="#0C4076" d="M309.5 146.8c-3-.3-5.5 1.1-5.7 3-.2 2 2 3.8 5 4.1 1.9.2 3.1-1.5 3.3-3.3.3-1.7-.5-3.6-2.6-3.8zm-89.8-28.1c1 0 1.9.8 2.1 1.8.2 1-.5 1.9-1.5 1.9-.9 0-1.8-.8-2-1.8-.2-1 .4-1.8 1.4-1.9zm-25.2 4.5c1.4-.5 3.3 2.7 1.6 3.4-1.2.5-2.1-.2-2.5-1.1-.5-1-.1-1.9.9-2.3z"/>
  </g>


  <path fill="#C6363C" stroke="#FFF" stroke-width="1.2" d="M167.1 160.5V306c0 26 10.1 49.7 26.4 66.8a87.7 87.7 0 0 0 63.6 27.7 87.7 87.7 0 0 0 63.6-27.7 96.7 96.7 0 0 0 26.4-66.8V160.5h-180z"/>

<!--  Paws -->
  <g fill="#EDB92E" stroke="#21231E">
    <path d="M219.5 312.4c-1.7.1-3.8 1.1-10 6.4-2.7 5.5-5.4 11-9.1 15.8-1.3.8-2.3 1.4-3.3 1.8-1.1.3-8.8.1-9-.2-2.4-2.2-6.1-.6-4.9 1.7-1 .9 1.1 4.2 2.8 2.8 1.6-1.3 7-.1 8.8-.7-.7 1.6-5.6 2.7-9 2.9-3.1.1-2.9 3.3-1.6 5.6 1.5.9.3-.2.8.4 1.4 2.1 4.4 1.8 4.5-.2.1-2.1 7.4-4.8 8.5-6.4-1.3 3.2-4.4 6.2-6 9.3-1.6 1.7-2.6 2-.5 5.3 2.4-.3 2.5-.9 4 .5 3.2-.4 3.8-1.3 3.2-3.9-.6-2.7 1.7-7.6 2.5-9 .7-1.3.9-2.6 1.5-3.4 1.2-1.4 6.8-4.2 8.2-3.4 2.6 1.4 4.6.6 5-2-.8-.7-.2-4.3-2-4.4-1.5-.1-2.4.3-3.7 1.4-2.2 1.8-3.3 2.7-4 2.5-1.7-.5 3-2.8 7.3-8.4 5.9-7.7 6.3-11.7 6-14.4z"/>
    <path d="M183.6 339.2c-2.2-1.3-3.4-1.2-4.2-.3-.5.5-1 .2-.7-.6 1.4-3.4 3.7-3.8 5.8-2.2l1.5 1.4c-.4.6-2.1 1.3-2.4 1.7zm30.8-3c2.3-1.6 4.4-1.9 5.6-1 .6.5 1.3.1.7-.7-2.4-3.3-5.2-3.5-7.2-1.6l-1.5 1.7c.7.8 2.3 1.7 2.4 1.6zm-18 19.1c-1.4 2.8-2.1 4.7-1.5 6.2.4.9 0 1.7-.9.9-3.6-3.1-3.6-6.6-1.3-9 .8-.8 1.6-1.3 2.3-1.9a8 8 0 0 1 1.4 3.8zm-8.9-7.3c-2.1.9-2.9 2-2.8 3.5 0 .8-.5 1.1-.8.2-2.6-6 .1-7.2 4-6.9.2 1-.3 3.2-.4 3.2zm18.9 27c4.3 3.4 8.2-4.4 4.4-14.8-2.8-7.7-16.5-4.7-8.9 5.6.4.5.9.3.8-.3-.4-2.1.9-3.3 3-3 5.7 1.1 5.9 11.8-.3 9.4-1.1 0-.1 2.2 1 3.1z"/>
    <path d="M213 341.7c-.6 1.9-2.6 4.1-4.3 5.8-2.5 2.6-1.9 6.6-.2 8.7 1.9 2.3 2.7 4.9 3.1 6.9.3 1.2.8 4 .4 8.3-.2 2.1-1.5 3.2-2.7 4.2-.6.5.3 1.6 2.3 3.2.2.2.8.6 1.1 1.6.1.3 1 .3 1.2 0 .3-1 .9-1.5 1.1-1.6 2-1.5 2.9-2.7 2.3-3.2-1.2-.9-2.5-2-2.7-4.2-.4-4.3.1-7.1.4-8.3.4-2 1.2-4.6 3.1-6.9 1.7-2.1 2.3-6.1-.2-8.7-1.6-1.7-3.7-3.9-4.3-5.7v-.1c0-.4-.2-.5-.4-.5l-.2.5zm80.8 33.3c4.3 3.4 8.2-4.4 4.4-14.8-2.8-7.7-16.5-4.7-8.9 5.6.4.5.9.3.8-.3-.4-2.1.9-3.3 3-3 5.7 1.1 5.9 11.8-.3 9.4-1.1 0-.1 2.2 1 3.1zm14 0c-4.3 3.4-8.2-4.4-4.4-14.8 2.8-7.7 16.5-4.7 8.9 5.6-.4.5-.9.3-.8-.3.4-2.1-.9-3.3-3-3-5.7 1.1-5.9 11.8.3 9.4 1.2 0 .2 2.2-1 3.1z"/>
    <path d="M300.4 341.7c-.6 1.9-2.6 4.1-4.3 5.8-2.5 2.6-1.9 6.6-.2 8.7 1.9 2.3 2.7 4.9 3.1 6.9.3 1.2.8 4 .4 8.3-.2 2.1-1.5 3.2-2.7 4.2-.6.5.3 1.6 2.3 3.2.2.2.8.6 1.1 1.6.1.3 1 .3 1.2 0 .3-1 .9-1.5 1.1-1.6 2-1.5 2.9-2.7 2.3-3.2-1.2-.9-2.5-2-2.7-4.2-.4-4.3.1-7.1.4-8.3.4-2 1.2-4.6 3.1-6.9 1.7-2.1 2.3-6.1-.2-8.7-1.6-1.7-3.7-3.9-4.3-5.7v-.1c0-.4-.2-.5-.4-.5 0 0-.2.2-.2.5z"/>
    <path d="M297.7 366.5h6.2c1.1 0 1.9.9 1.9 1.9a2 2 0 0 1-1.9 1.9h-6.2c-1.1 0-1.9-.9-1.9-1.9a2 2 0 0 1 1.9-1.9zm-3-54.1c1.7.1 3.8 1.1 10 6.4 2.7 5.5 5.4 11 9.1 15.8 1.3.8 2.3 1.4 3.3 1.8 1.1.4 8.8.1 9-.2 2.4-2.2 6.1-.6 4.9 1.7 1 .9-1.2 4.2-2.8 2.8-1.6-1.3-7-.1-8.8-.7.7 1.6 5.6 2.7 9 2.9 3.1.1 2.9 3.3 1.6 5.6-1.5.9-.3-.2-.8.4-1.4 2.1-4.4 1.8-4.5-.2-.1-2.1-7.4-4.8-8.5-6.4 1.3 3.2 4.4 6.2 6 9.3 1.6 1.6 2.6 2 .5 5.3-2.4-.3-2.5-.9-3.9.5-3.2-.4-3.8-1.3-3.2-3.9.6-2.7-1.7-7.6-2.5-9-.7-1.3-.9-2.6-1.5-3.4-1.2-1.4-6.8-4.2-8.2-3.4-2.6 1.4-4.6.6-5-2 .8-.7.2-4.3 2-4.4 1.5-.1 2.4.3 3.7 1.5 2.2 1.8 3.3 2.7 4 2.5 1.7-.5-3-2.8-7.3-8.4-5.9-7.9-6.3-11.8-6.1-14.5z"/>
    <path d="M330.7 339.2c2.2-1.3 3.4-1.2 4.2-.3.5.5 1 .2.7-.6-1.4-3.4-3.7-3.8-5.8-2.2l-1.5 1.4c.4.6 2.1 1.4 2.4 1.7zm-30.9-3c-2.3-1.6-4.4-1.9-5.6-1-.6.5-1.3.1-.7-.7 2.4-3.3 5.2-3.5 7.2-1.6l1.5 1.7c-.7.8-2.3 1.7-2.4 1.6zm18.1 19.1c1.4 2.8 2.1 4.7 1.5 6.2-.4.9 0 1.7.9.9 3.6-3.1 3.6-6.6 1.3-9-.8-.8-1.6-1.3-2.3-1.9a8 8 0 0 0-1.4 3.8zm8.9-7.3c2.1.9 2.9 2 2.8 3.5 0 .8.5 1.1.8.2 2.6-6-.1-7.2-4-6.9-.3 1 .3 3.2.4 3.2zm-106.3 27c-4.3 3.4-8.2-4.4-4.4-14.8 2.8-7.7 16.5-4.7 8.9 5.6-.4.5-.9.3-.8-.3.4-2.1-.9-3.3-3-3-5.7 1.1-5.9 11.8.3 9.4 1.2 0 .2 2.2-1 3.1z"/>
    <path d="M210.4 366.5h6.2c1.1 0 1.9.9 1.9 1.9a2 2 0 0 1-1.9 1.9h-6.2c-1.1 0-1.9-.9-1.9-1.9-.1-1 .8-1.9 1.9-1.9z"/>
  </g>
<!--  Feathers -->
  <g fill="#FFF" stroke="#21231E">
    <path d="m292.1 309.6-.2-5.9c2.4-1.2 8.2 0 10.6 5.4a36.4 36.4 0 0 0 9.6 13.5c-5.3 1-9.8-.1-12.7-3.9-4-5.3-6-8.4-7.3-9.1z"/>
    <path d="m287.7 310.3 6.3-2.7c2.6 5.3 4.4 8.9 5.1 10.8 1.4 3.8 1.8 7.4 1.2 10.5a12 12 0 0 1-7.5-6.2c-2-3.8-3.3-8.2-5.1-12.4z"/>
    <path d="m285.9 310.3 6.8-1c1.2 5.8 2.1 9.7 2.3 11.7.5 4 0 7.6-1.4 10.4a12.2 12.2 0 0 1-5.8-7.9c-1-4.1-1.2-8.7-1.9-13.2z"/>
    <path d="M284.9 301.1h-4c-2.4 1.2-4.8 6.6-2 11.7a36 36 0 0 1 5.1 15.8c4-3.7 5.8-7.9 4.4-12.5a77.9 77.9 0 0 1-3.5-15z"/>
    <path d="m283.1 298.3 6.5-2.3a220 220 0 0 1 4.5 11.1c1.2 3.9 1.4 7.5.6 10.5a12 12 0 0 1-7.5-6.3c-1.9-3.9-2.5-8.8-4.1-13z"/>
    <path d="m287.5 293.8 1.4-8.8c1.5-.4 3.5 3.1 5.4 5.1.4.5 1 .9 1.4 1.5.8 1.2 1.5 2.6 1.8 4.3a34 34 0 0 0 6.9 14.8c-5.4-.1-9.6-2.1-11.6-6.4-2.8-6-4.2-9.6-5.3-10.5zm10.8-43.3c-.1 4.7.7 35.7 1 40.1.3 4.4 2.2 7.3 4.3 9.1 1.9-2.6 3-6.1 3.3-10.3.1-2.1-.3-31.5-.4-37.5-3.5-9.3-6.1-9.6-8.2-1.4z"/>
    <path d="m318.5 242.9 1.3 42.7a117 117 0 0 1-7.2 30.8c-6.7-2.9-8.1-18.1-6.8-33 1.3-14.9-.2-27.8-1.2-30.4-.1-3.4.5-6.9.5-10.4 4.2.1 9.2 0 13.4.3z"/>
    <path d="m326.4 249.9-.9 42.7c.2 3.8-5.9 26-8.8 30.3-6.8-5.2-5.4-26.7-4.4-33.2 2.1-12.9 1.7-27.9 1-30.4l.4-10.9 12.7 1.5z"/>
    <path d="M309.3 217.4c.3 10 .5 31.7.4 33.5-.1 4.2-1.8 9.5-3.6 12.1a12.3 12.3 0 0 1-4.5-8.9c-.3-3.6-.4-21.2-.5-30 2.3-1.5 4.6-3.3 6.5-5.2l1.7-1.5zm-19.9 25.2c0 4.7 1.8 35.6 2.2 40 .4 4.4 2.4 7.3 4.5 8.9 1.8-2.7 2.8-6.2 3-10.4.1-2.1-1.2-31.5-1.6-37.5-3.7-9-6.3-9.2-8.1-1zm42.9 17.4-11.2-.3c1 4.7.2 19.1-1.7 30.1-1.8 10.3-4.4 37.1 6.4 43.6 6.7-14.1 1.6-27.9 5-40.2 2.5-13 3.1-23.9 1.5-33.2z"/>
    <path d="m308.2 216.5 7.6-11c1.5 5.4 3.4 44.4 1.2 47.6-.1 4.2-1.7 7.7-3.5 10.4-2.1-1.6-5.3-4.6-4.4-9 1-4.5 0-33.5-.9-38zm-6.9 7.3c.2 10.8.1 27.7 0 29.1-.1 4.2-1.2 7.7-3 10.4a12.8 12.8 0 0 1-4.7-9 434 434 0 0 1-1.1-23c2.9-.9 6.5-5.6 8.8-7.5z"/>
    <path d="M323.9 241c.3 6 .6 10.1.5 12.2-.1 4.2-1.2 7.7-3 10.4a10.3 10.3 0 0 1-4.5-8.9c1.1-16.9-.8-32.8-2.9-48 1.8-1.3 4.9-2.8 6.7-4.1 3.6 20.5 4.8 33.3 3.2 38.4z"/>
    <path d="m331.5 252-2.1 7.8c-.1 4.2-2.7 7.6-4.5 10.3a9 9 0 0 1-3.5-8.7c3.1-24.9 2-41.4-3.2-61.7 11.8 8.1 17.3 25.1 13.3 52.3zm-.6 7.7 10.9-3.6c1.4 10.8-.7 24.5-3.7 42.4a91 91 0 0 0 .7 35.5c-11.6-1.6-16.5-16.5-10.7-44.6 1.6-7.3 3.1-16.7 2.8-29.7z"/>
    <path d="m331.4 195.9-7.1 1.2 2.5 12.5c2.7 13 4.4 28.3 2.4 45.2a51.3 51.3 0 0 1-4 15.3c7.8-.9 12.8-8.5 12.2-21.8a107 107 0 0 0-1.8-37.2c-.8-2.7-3.2-13-4.2-15.2z"/>
    <path d="m335.7 197.6-3.5 4c1 .7-.7 3.8.2 9.7.6 3.4 2.6 7.3 3 11.6 1.4 14.3 1.4 32.1-2.9 43.5 7.8-.9 10.5-8 10.8-21.3.2-11 .2-24-2.5-39-.6-3.3-2.3-6.1-5.1-8.5zm-19.6 10.5 7.2-.8c1.3 6.8 2.3 11.6 2.6 14.1a23 23 0 0 1-2.6 12.4c-2.7-1.6-3.9-5.1-5-10-1.1-5-1.4-10.4-2.2-15.7zm-18.7 15.3 6.4.1c.2 5.9.4 9.9.3 11.9-.2 4.1-1.2 7.5-3 10.1a12.4 12.4 0 0 1-4.1-8.7c-.2-4.3.4-8.8.4-13.4zm-6.9 3.1 6.4.3-.1 11.9c-.3 4-1.5 7.5-3.3 10a12.4 12.4 0 0 1-3.8-8.9c-.1-4.3.6-8.8.8-13.3zm13.4-6.4 6.4-.5c.7 5.8 1.2 9.8 1.2 11.9.1 4.1-.6 7.6-2.1 10.3a12.5 12.5 0 0 1-4.8-8.4c-.6-4.2-.3-8.7-.7-13.3z"/>
    <path d="m309.9 213.3 7-2.9c1.2 4.7 2.8 20.3-.1 26.9a13.9 13.9 0 0 1-5.5-9.2c-.7-4.8-.9-9.8-1.4-14.8z"/>
    <path fill="none" d="M331.2 312.2a90 90 0 0 1 2.3-21.6c1.8-8.5 2.7-16.7 2.9-25.3"/>
    <path d="M266.5 392.6c-.8-.1-2.1.2-3.2-.5-1.4-.9-1.5-5.2-1.6-7.9-.6-13.6-1.9-36.4-4.1-68.4 1.1-.3 1.9-.3 2.7-.2l.4-.1c5.1 31.7 7 54.2 10.6 67.8.5 1.9 1.5 6.6-.1 8.1-.9.9-2.3.8-3 1l-1.7.2z"/>
    <path d="M276.5 391.2c-.8 0-2.1.4-3.2-.2-1.5-.8-1.4-5.1-2.1-7.7-3.5-13.6-5.4-36.1-10.6-67.8 1.1-.4 1.9-.4 2.7-.5h.1c8.1 30.8 10.6 52.6 16.9 66 .6 1.9 2.2 6.8.7 8.5-.8.9-2.2 1-2.9 1.3l-1.6.4z"/>
    <path d="M286.6 388.3c-.8.1-2.1.8-3.3.4-1.6-.6-1.8-5.2-2.9-7.6-6.3-13.5-8.8-35.4-17-66.4 1-.5 1.9-.6 2.6-.7.7-.3.6-.5 1.7-.7 9.6 30.7 12.7 52 21.7 65.3 1.5 2.1 2.5 6.4 1.5 7.8-.7 1-2.1 1.2-2.8 1.6l-1.5.3z"/>
    <path d="M281.3 365.1c-.7 0-1.8.5-2.9-.1-1.5-.7-2.5-4.9-3.3-7.4-6.4-12.6-12.2-35-21.8-66.2.9-.4 1.7-.5 2.4-.5a6 6 0 0 1 2.3-.6c10.3 30.8 15 53.1 25 65.4 1.7 2 2.9 6.4 2.1 7.7-.6 1-1.8 1.1-2.4 1.4l-1.4.3z"/>
    <path d="M273.1 366.7c-.7 0-1.9.3-2.9-.3-1.4-.8-1.9-5-2.4-7.7-2.6-13.4-7.3-36-14.1-67.6 1-.3 1.7-.4 2.4-.3.7-.2 1.4-.4 2.4-.4 8 31.4 9.8 55 17.4 67.1 1.4 2.2 2.1 6.7 1.2 7.9-.7.9-1.9.9-2.6 1.2l-1.4.1z"/>
    <path d="M264.8 367.7c-.7-.1-1.9.2-2.9-.5-1.3-.9-1.3-5.2-1.5-7.8-1-13.6-3.2-36.4-6.2-68.4 1-.2 1.8-.2 2.5-.2.7-.2 1.4-.3 2.5-.2 4.3 31.9 6.8 55.1 9.6 68.2.5 2.6 1.4 6.8.3 7.9-.8.8-2 .8-2.7 1h-1.6z"/>
    <path d="M275.6 346.4c-.6 0-1.4.5-2.2-.1-1.2-.7-1.9-4.9-2.5-7.4-4.9-12.6-9.4-35-16.7-66.2.7-.4 1.3-.5 1.8-.5.5-.3 1-.5 1.8-.6 7.9 30.8 11.5 53.1 19.2 65.4 1.3 2 2.2 6.4 1.6 7.7-.5 1-1.4 1.1-1.9 1.4l-1.1.3z"/>
    <path d="M269.4 348c-.6 0-1.4.3-2.2-.3-1.1-.8-1.5-5-1.9-7.7-2-13.4-5.6-36-10.8-67.6.7-.3 1.3-.4 1.9-.4.5-.2 1-.4 1.8-.4 6.1 31.4 7.5 55 13.3 67.1 1 2.2 1.6 6.7.9 7.9-.5.9-1.5.9-2 1.2l-1 .2z"/>
    <path d="M263 349c-.6-.1-1.4.2-2.2-.5-1-.9-1-5.2-1.2-7.8-.8-13.6-2.4-36.4-4.8-68.4.8-.2 1.3-.2 1.9-.2.5-.2 1.1-.3 1.9-.2 3.3 31.9 5.2 55.1 7.3 68.2.4 2.6 1 6.8.2 7.9-.6.9-1.5.8-2.1 1h-1zm-12.2-42.8-5.1-2.9c-2.1 1.5-6.6 7.1-3 11.7 4.6 5.8 9.3 10.2 10.4 14.9 3.3-4.3 4.7-8.7 2.6-13.1-2.7-5.8-4.9-9.1-4.9-10.6z"/>
    <path d="m267.6 310.3 5.1-2.9c2.1 1.5 3.7 7.2.1 11.9-4.6 5.8-6.4 10-7.5 14.7-3.3-4.3-4.5-8.7-2.4-13.1 2.8-5.8 4.7-9.1 4.7-10.6z"/>
    <path d="m263.5 306.2 5.1-2.9c2.1 1.5 6.6 7.1 3 11.7-4.6 5.8-9.3 10.2-10.4 14.9-3.3-4.2-4.7-8.7-2.6-13.1 2.7-5.8 4.8-9.1 4.9-10.6z"/>
    <path d="m274.7 304.2 5.1-2.9c2.1 1.5 3.7 7.2.1 11.9-4.6 5.8-6.4 10-7.5 14.7-3.3-4.2-4.5-8.7-2.4-13.1 2.8-5.8 4.7-9.1 4.7-10.6zm-26.9 88.4c.8-.1 2.1.2 3.2-.5 1.4-.9 1.5-5.2 1.7-7.9.6-13.6 1.9-36.4 4.1-68.4a6.5 6.5 0 0 0-2.7-.2l-.4-.1c-5.1 31.7-7 54.2-10.6 67.8-.5 1.9-1.5 6.6.1 8.1.9.9 2.3.8 3 1l1.6.2z"/>
    <path d="M237.8 391.2c.8 0 2.1.4 3.2-.2 1.5-.8 1.4-5.1 2.1-7.7 3.5-13.6 5.4-36.1 10.6-67.8-1.1-.4-1.9-.4-2.7-.5h-.1c-8.1 30.8-10.6 52.6-16.9 66-.6 1.9-2.2 6.8-.7 8.5.8.9 2.2 1 2.9 1.3l1.6.4z"/>
    <path d="M227.7 388.3c.8.1 2.1.8 3.3.4 1.6-.6 1.8-5.2 2.9-7.6 6.3-13.5 8.8-35.4 17-66.4-1-.5-1.9-.6-2.6-.7-.7-.3-.6-.5-1.7-.7-9.6 30.7-12.7 52-21.7 65.3-1.5 2.1-2.5 6.4-1.5 7.8.7 1 2.1 1.2 2.8 1.6l1.5.3z"/>
    <path d="M233 365.1c.7 0 1.8.5 2.9-.1 1.5-.7 2.5-4.9 3.3-7.4 6.4-12.6 12.2-35 21.8-66.2-.9-.4-1.7-.5-2.4-.5-.6-.3-1.3-.5-2.3-.6-10.3 30.8-15 53.1-25 65.4-1.7 2-2.9 6.4-2.1 7.7.6 1 1.8 1.1 2.4 1.4l1.4.3z"/>
    <path d="M241.2 366.7c.7 0 1.9.3 2.9-.3 1.4-.8 1.9-5 2.4-7.7 2.6-13.4 7.3-36 14.1-67.6a8 8 0 0 0-2.4-.4c-.7-.2-1.4-.4-2.4-.4-8 31.4-9.8 55-17.4 67.1-1.4 2.2-2.2 6.7-1.2 7.9.7.9 1.9.9 2.6 1.2l1.4.2z"/>
    <path d="M249.5 367.7c.7-.1 1.9.2 2.9-.5 1.3-.9 1.3-5.2 1.5-7.8 1-13.6 3.2-36.4 6.2-68.4-1-.2-1.8-.2-2.5-.2-.7-.2-1.4-.3-2.5-.2-4.3 31.9-6.8 55.1-9.6 68.2-.5 2.6-1.4 6.8-.3 7.9.8.8 2 .8 2.7 1h1.6z"/>
    <path d="M238.7 346.4c.6 0 1.4.5 2.3-.1 1.1-.7 1.9-4.9 2.5-7.4 4.9-12.6 9.4-35 16.7-66.2-.7-.4-1.3-.5-1.8-.5-.5-.3-1-.5-1.8-.6-7.9 30.8-11.5 53.1-19.2 65.4-1.3 2-2.2 6.4-1.6 7.7.5 1 1.4 1.1 1.9 1.4l1 .3z"/>
    <path d="M244.9 348c.6 0 1.4.3 2.2-.3 1.1-.8 1.5-5 1.9-7.7 2-13.4 5.6-36 10.8-67.6-.7-.3-1.3-.4-1.9-.3-.5-.2-1.1-.4-1.9-.4-6.1 31.4-7.5 55-13.3 67.1-1.1 2.2-1.6 6.6-.9 7.9.5.9 1.5.9 2 1.2l1.1.1z"/>
    <path d="M251.3 349c.5-.1 1.4.2 2.2-.5 1-.9 1-5.2 1.2-7.8.8-13.6 2.4-36.4 4.8-68.4-.8-.2-1.3-.2-1.9-.2-.5-.2-1.1-.3-1.9-.2-3.3 31.9-5.2 55.1-7.3 68.2-.4 2.6-1 6.8-.2 7.9.6.8 1.5.8 2.1 1h1z"/>
    <path d="m246.6 310.3-5.1-2.9c-2.1 1.5-3.7 7.2-.1 11.9 4.6 5.8 6.4 10 7.5 14.7 3.3-4.3 4.5-8.7 2.4-13.1-2.8-5.8-4.6-9.1-4.7-10.6z"/>
    <path d="m239.6 304.2-5.1-2.9c-2.1 1.5-3.7 7.3-.1 11.9 4.6 5.8 6.4 10 7.5 14.7 3.3-4.3 4.5-8.7 2.4-13.1-2.9-5.8-4.7-9.1-4.7-10.6zM216 250.5c.1 4.7-.7 35.7-1 40.1-.3 4.4-2.2 7.3-4.3 9.1-1.9-2.6-3-6.1-3.3-10.3-.1-2.1.3-31.5.4-37.5 3.5-9.3 6.1-9.6 8.2-1.4z"/>
    <path d="m195.8 242.9-1.3 42.7a117 117 0 0 0 7.2 30.8c6.7-2.9 8.1-18.1 6.8-33-1.3-14.9.2-27.8 1.2-30.4.1-3.4-.5-6.9-.5-10.4-4.2.1-9.2 0-13.4.3z"/>
    <path d="m187.8 249.9.9 42.7c-.2 3.8 5.9 26 8.8 30.3 6.8-5.2 5.4-26.7 4.4-33.2a117.7 117.7 0 0 1-1-30.4l-.4-10.9-12.7 1.5z"/>
    <path d="M205 217.4c-.3 10-.5 31.7-.4 33.5.1 4.2 1.8 9.5 3.6 12.1 2.1-1.6 4.1-4.5 4.5-8.9.3-3.6.4-21.2.5-30a41.2 41.2 0 0 1-6.5-5.2l-1.7-1.5zm19.9 25.2c0 4.7-1.8 35.6-2.2 40-.4 4.4-2.4 7.3-4.5 8.9a20.3 20.3 0 0 1-3-10.4c-.1-2.1 1.2-31.5 1.6-37.5 3.7-9 6.3-9.2 8.1-1zM182 260l11.2-.3c-1 4.7-.2 19.1 1.7 30.1 1.8 10.3 4.4 37.1-6.4 43.6-6.7-14.1-1.6-27.9-5-40.2A91.4 91.4 0 0 1 182 260z"/>
    <path d="m206.1 216.5-7.6-11c-1.5 5.4-3.4 44.4-1.2 47.6.1 4.2 1.7 7.7 3.5 10.4 2.1-1.6 5.3-4.6 4.4-9-1.1-4.5-.1-33.5.9-38zm6.9 7.3c-.2 10.8-.1 27.7 0 29.1.1 4.2 1.2 7.7 3 10.4 2.1-1.6 4.4-4.7 4.7-9 .2-2.7 1-14.2 1.1-23-2.9-.9-6.5-5.6-8.8-7.5z"/>
    <path d="M190.4 241c-.3 6-.6 10.1-.5 12.2.1 4.2 1.2 7.7 3 10.4 2.1-1.6 4.8-4.5 4.5-8.9-1.1-16.9.8-32.8 2.9-48-1.8-1.3-4.9-2.8-6.7-4.1-3.6 20.5-4.8 33.3-3.2 38.4z"/>
    <path d="m182.7 252 2.1 7.8c.1 4.2 2.7 7.6 4.5 10.3a9 9 0 0 0 3.5-8.7c-3.1-24.9-2-41.4 3.2-61.7-11.7 8.1-17.2 25.1-13.3 52.3zm.7 7.7-10.9-3.6c-1.4 10.8.7 24.5 3.7 42.4a91 91 0 0 1-.7 35.5c11.6-1.6 16.5-16.5 10.7-44.6-1.6-7.3-3.1-16.7-2.8-29.7z"/>
    <path d="m182.9 195.9 7.1 1.2-2.5 12.5c-2.7 13-4.4 28.3-2.4 45.2.8 6.2 2.1 11.3 4 15.3-7.8-.9-12.8-8.5-12.2-21.8a107 107 0 0 1 1.8-37.2c.8-2.7 3.2-13 4.2-15.2z"/>
    <path d="m178.6 197.6 3.5 4c-1 .7.7 3.8-.2 9.7-.6 3.4-2.6 7.3-3 11.6-1.4 14.3-1.4 32.1 2.9 43.5-7.8-.9-10.5-8-10.8-21.3-.2-11-.2-24 2.5-39 .6-3.3 2.3-6.1 5.1-8.5zm19.5 10.5-7.2-.8c-1.3 6.8-2.3 11.6-2.6 14.1a23 23 0 0 0 2.6 12.4c2.7-1.6 3.9-5.1 5-10 1.2-5 1.5-10.4 2.2-15.7zm18.8 15.4-6.4.1c-.2 5.9-.4 9.9-.3 11.9.2 4.1 1.2 7.5 3 10.1 1.9-1.6 3.8-4.5 4.1-8.7.2-4.4-.4-8.9-.4-13.4z"/>
    <path d="m223.7 226.5-6.4.3.1 11.9c.3 4.1 1.5 7.5 3.3 10 1.9-1.7 3.6-4.6 3.8-8.9.2-4.3-.6-8.8-.8-13.3zm-13.4-6.4-6.4-.5c-.7 5.8-1.2 9.8-1.2 11.9-.1 4.1.6 7.6 2.1 10.3 2.1-1.5 4.1-4.2 4.8-8.4.6-4.1.4-8.7.7-13.3z"/>
    <path d="m204.3 213.3-7-2.9c-1.2 4.7-2.8 20.3.1 26.9 2.3-1.6 4.7-4.6 5.5-9.2.8-4.8 1-9.8 1.4-14.8zm-9.2-7.8-11.2 1a78 78 0 0 0-5.1 17.3c5.2-.9 9-3.5 10.3-8.1 1.8-6.3 5-9.1 6-10.2zm27.1 104.1.2-5.9c-2.3-1.2-8.1 0-10.6 5.4a36.4 36.4 0 0 1-9.6 13.5c5.3 1 9.8-.1 12.7-3.9 3.9-5.3 6-8.4 7.3-9.1z"/>
    <path d="m226.5 310.3-6.3-2.7c-2.6 5.3-4.4 8.9-5.1 10.8a19.8 19.8 0 0 0-1.2 10.5 12 12 0 0 0 7.5-6.2c2.1-3.8 3.3-8.2 5.1-12.4z"/>
    <path d="m228.3 310.3-6.8-1c-1.2 5.8-2.1 9.7-2.3 11.7-.5 4 0 7.6 1.4 10.4 2.3-1.3 4.8-3.8 5.8-7.9 1.1-4.1 1.2-8.7 1.9-13.2z"/>
    <path d="M229.4 301.1h4c2.4 1.2 4.8 6.5 2 11.7a36 36 0 0 0-5.1 15.8c-4-3.7-5.8-7.9-4.4-12.5a77.9 77.9 0 0 0 3.5-15z"/>
    <path d="m231.2 298.3-6.5-2.3a220 220 0 0 0-4.5 11.1 19.2 19.2 0 0 0-.6 10.5c2.5-.8 5.7-2.4 7.5-6.3 1.9-3.9 2.5-8.8 4.1-13z"/>
    <path d="m226.8 293.8-1.4-8.8c-1.5-.4-3.5 3.1-5.4 5.1-.4.5-1 .9-1.3 1.5-.8 1.2-1.5 2.6-1.8 4.3a34 34 0 0 1-6.9 14.8c5.4-.1 9.6-2.1 11.6-6.4 2.6-6 4-9.6 5.2-10.5zM258 393c.8-.1 2.1 0 3.1-.7 1.3-1 .8-5.3.7-7.9-.6-13.6-1.2-36.5-1.9-68.6a8 8 0 0 0-2.7 0c-.8-.1-1.6-.2-2.7 0-.7 32.1-1.3 55-1.9 68.6-.1 2.7-.6 6.9.7 7.9 1 .8 2.3.6 3.1.7h1.6z"/>
    <path d="M257.9 368c.7-.1 1.9 0 2.8-.7 1.2-1 .7-5.2.6-7.9a3285 3285 0 0 1-1.7-68.6 7 7 0 0 0-2.5 0c-.7-.1-1.4-.2-2.5 0-.6 32.1-1.1 55-1.7 68.6-.1 2.7-.6 6.9.6 7.9.9.8 2.1.6 2.8.7h1.6z"/>
    <path d="M257.7 349.3c.5-.1 1.5 0 2.1-.8.9-1 .5-5.3.5-7.9-.4-13.6-.8-36.5-1.3-68.6a4 4 0 0 0-1.9 0 4 4 0 0 0-1.9 0c-.5 32.1-.9 55-1.3 68.6-.1 2.7-.4 6.9.5 7.9.7.8 1.6.6 2.1.8h1.2z"/>
    <path d="m253.2 298.8-.1 7.5-5.7 1.2c0 2.6 6.4 29.7 9.7 29.7 3.3 0 9.7-27.1 9.7-29.7l-5.7-1.2-.1-7.5c-1.2 1-2.5 2.7-3.9 4.3-1.4-1.6-2.7-3.3-3.9-4.3z"/>
    <path fill="none" stroke-linejoin="round" d="m240.1 217.2-1.6 1.5c-3.5 3.4-8.1 3.8-13.1 2m27-7.8c.2 4.4 1.9 8.3 4.7 11.7m-10.8-6.6a14 14 0 0 1-8.2 5.1c1.2-2.7 2.1-5.5 2.6-8.9m4.9-.6a18 18 0 0 0 2.9 8.7c1.7-1.3 3.4-3.4 4.2-6.5m21.5 1.4 1.6 1.5c3.5 3.4 8.1 3.8 13.1 2m-21-2.7a14 14 0 0 0 8.2 5.1 33.1 33.1 0 0 1-2.6-8.9m-11.6-1.3c-.2 4.4-1.9 8.3-4.7 11.7m4.4-8.8c.8 3.1 2.4 5.2 4.2 6.5 1.6-2.3 2.6-5.2 2.9-8.7"/>
    <path d="M286.3 221.5a25 25 0 0 0 2.6-.7 35.5 35.5 0 0 1-11.5-11.9c-4.1-6.3 1.8-17.7 4.3-23.7 5.1-3.8 9.9-9.3 11.4-16.6.6-3.9-10.3-2.5-17.7 1-9.1 4.3-10.4 3.1-13.6 3.8-1.2 5.6 1.3 6.1 3.6 5.8-5 8.1-7.1 16.1-8.1 27.6a57.9 57.9 0 0 0-8.1-27.6c2.3.3 4.8-.2 3.6-5.8-3.3-.7-4.5.5-13.6-3.8-7.5-3.5-18.3-4.9-17.7-1a28 28 0 0 0 11.4 16.6c2.4 6 8.4 17.3 4.3 23.7-4 6.2-7.4 9.3-11.5 11.9l2.6.7c-.6.8-5.9 2.5-6.6 2.1-4.1-2.9-8-9.6-11.5-13.5-9.8-11.1-14.7-19.7-13-26.6 2.5-7.4 11.2-15.8-.4-14.4-11.6 1.4-21.3 17.4-24.4 36.6-1.1 7.1-1.8 13.1-2.6 17.9 6.3-2.3 9.2-4.5 10.8-7.3-.8 2.6-1.3 5.2-1.7 7.6 5.2-.9 9-3.5 10.3-8.1.5-1.6 1.1-3.2 1.9-4.7 1.6.6 3.7.5 6.2-.1 1 2.3 8.1 10.2 12 16.1 4.3 6.6 10.9 11.7 13 11.9 1.1.1 1.4-2.2 1.2-5.5 11.3.1 22.7.1 33.8-.2 11.1.4 22.5.3 33.8.2-.2 3.3.1 5.7 1.2 5.5 2.2-.3 8.7-5.3 13-11.9 3.8-5.8 11-13.8 12-16.1 2.5.6 4.6.7 6.2.1a23 23 0 0 1 1.9 4.7c1.3 4.6 5.1 7.2 10.3 8.1-.4-2.4-1-4.9-1.7-7.6 1.7 2.8 4.5 5 10.8 7.3-.8-4.9-1.4-10.8-2.6-17.9-3.1-19.2-12.7-35.1-24.4-36.6-11.6-1.4-2.8 6.9-.4 14.4 1.7 6.9-3.2 15.5-13 26.6-3.5 3.9-7.4 10.7-11.5 13.5-.7.4-6-1.3-6.6-2.1z"/>
  </g>
  <path fill="#C6363C" stroke="#21231E" stroke-width="1.2" d="M293.1 225.3v58.2c0 10.4-4 19.9-10.6 26.7a34.8 34.8 0 0 1-50.8 0 38.7 38.7 0 0 1-10.6-26.7v-58.2h72z"/>
  <g fill="#FFF" stroke="#21231E">
    <path d="M293.1 261v15h-28.5v44.5a36.7 36.7 0 0 1-15 0V276h-28.5v-15h28.5v-35.7h15V261h28.5z"/>
    <path stroke-linejoin="round" d="M244.8 233.8v21.1c-4.6 1.2-15.8 5.7-16.4-4.1-.3-4.5 5.6-7.5 7.2-3.5.8 1.9-.1 3.2-1.2 3.7-1.2.5-2.4-.5-2.1-1.9-4.8 2.5 4.3 7.8 8.3.9 1.2-2-2-4.1-2-5.6s3.1-3.7 2-5.6c-4.1-6.8-13.1-1.6-8.3.9-.3-1.4.9-2.4 2.1-1.9 1.1.4 1.9 1.8 1.2 3.7-1.6 4-7.5 1-7.2-3.5.6-9.9 11.8-5.4 16.4-4.2zm24.7 0v21.1c4.6 1.2 15.8 5.7 16.4-4.1.3-4.5-5.6-7.5-7.2-3.5-.8 1.9.1 3.2 1.2 3.7 1.2.5 2.4-.5 2.1-1.9 4.8 2.5-4.2 7.8-8.3.9-1.2-2 2-4.1 2-5.6s-3.1-3.7-2-5.6c4.1-6.8 13.1-1.6 8.3.9.3-1.4-.9-2.4-2.1-1.9-1.1.4-1.9 1.8-1.2 3.7 1.6 4 7.5 1 7.2-3.5-.6-9.9-11.8-5.4-16.4-4.2zm-24.7 69.4v-21.1c-4.6-1.2-15.8-5.7-16.4 4.1-.3 4.5 5.6 7.5 7.2 3.5.8-1.9-.1-3.2-1.2-3.7-1.2-.5-2.4.5-2.1 1.9-4.8-2.5 4.3-7.8 8.3-.9 1.2 2-2 4.1-2 5.6s3.1 3.7 2 5.6c-4.1 6.8-13.1 1.6-8.3-.9-.3 1.4.9 2.4 2.1 1.9 1.1-.4 1.9-1.8 1.2-3.7-1.6-4-7.5-1-7.2 3.5.6 9.9 11.8 5.4 16.4 4.2zm24.7 0v-21.1c4.6-1.2 15.8-5.7 16.4 4.1.3 4.5-5.6 7.5-7.2 3.5-.8-1.9.1-3.2 1.2-3.7 1.2-.5 2.4.5 2.1 1.9 4.8-2.5-4.2-7.8-8.3-.9-1.2 2 2 4.1 2 5.6s-3.1 3.7-2 5.6c4.1 6.8 13.1 1.6 8.3-.9.3 1.4-.9 2.4-2.1 1.9-1.1-.4-1.9-1.8-1.2-3.7 1.6-4 7.5-1 7.2 3.5-.6 9.9-11.8 5.4-16.4 4.2z"/>
  </g>
  <path fill="#EDB92E" stroke="#21231E" d="M234.8 190.3c-1.1 1-4.7 1-9.6 1.3-8 .3-12.6-2.1-13.6-7.2 3 3.6 6.6 5.3 10.6 4.3 5.5-1.3 8.6-2.3 9.8-2.1.8.3 2.1 1.8 2.8 3.7zm44.7 0c1.1 1 4.7 1 9.6 1.3 8 .3 12.6-2.1 13.6-7.2-3 3.6-6.6 5.3-10.6 4.3-5.5-1.3-8.6-2.3-9.8-2.1-.9.3-2.1 1.8-2.8 3.7z"/>
  <path fill="#EDB92E" stroke="#21231E" d="M298.1 169.4c8.9 1 8.5 6.8.2 15-1.6 1.6-2.1 1.5-2.5-.1-.6-2.9-3.8-4.6-5.4-2.4-1.1 1.5-.9 2.3-4.7 1.8-4.8 4-8.7 6.8-2.4 6.6 2.7-.1 4.9 1.5 8.4 1.4-1.1 2.1-1.2 2.3-1.8 2.5-3.5.7-7.1-1.5-10.6-.8-7.7 1.4 12.3-20.7 12-21.6-.7-2.3 4.8-6.3 6.8-2.4zm-81.9 0c-8.9 1-8.5 6.8-.2 15 1.6 1.6 2.2 1.5 2.5-.1.6-2.9 3.8-4.6 5.4-2.4 1.1 1.5.9 2.3 4.7 1.8 4.8 4 8.7 6.8 2.4 6.6-2.7-.1-4.9 1.5-8.4 1.4 1.1 2.1 1.2 2.3 1.8 2.5 3.5.7 7.1-1.5 10.6-.8 7.7 1.4-12.3-20.7-12-21.6.6-2.3-4.8-6.3-6.8-2.4z"/>
  <path fill="none" stroke="#21231E" d="M297.9 169.2c-.7 2.1-2.2 4-4.2 5.8"/>
  <path fill="#21231E" d="M299.8 173.5c-.1-.4-.4-.7-.8-.6-.2 0-.4.1-.5.3-.1.2-.2.4-.1.5.1.4.4.7.8.6.2 0 .4-.1.5-.3l.1-.5"/>
  <path fill="none" stroke="#21231E" stroke-width=".8" d="M231.6 173.7c.9.3 4 1.6 5 1.4m-13.1-3.5c2.4-.1 4.8.9 8 2.1"/>
  <path fill="none" stroke="#21231E" stroke-width=".8" d="M229.8 177.3c1.6.9 3.4-.5 4.7-2.9m-9.1-2.6c1 1.8 2.2 4.3 4.3 5.5"/>
  <path fill="#21231E" d="m228.9 176.4-1.2-1.2c-.6-.7-.2-1.7 1-2.9l2.3 1c-.4 1.7-1.1 2.7-2.1 3.1"/>
  <path fill="none" stroke="#21231E" stroke-width=".8" d="M284.5 177.3c-1.6.9-3.4-.5-4.7-2.9m9-2.6c-1 1.8-2.2 4.3-4.3 5.5"/>
  <path fill="#21231E" d="m285.4 176.4 1.2-1.2c.6-.7.2-1.7-1-2.9l-2.3 1c.4 1.7 1.1 2.7 2.1 3.1"/>
  <path fill="none" stroke="#21231E" stroke-width=".8" d="M282.7 173.7c-.9.3-4 1.6-5 1.4m13-3.5c-2.4-.1-4.9.9-8 2.1"/>
  <path fill="none" stroke="#21231E" d="M216.4 169.2c.7 2.1 2.2 4 4.2 5.8"/>
  <path fill="#21231E" d="M214.5 173.5c.1-.4.4-.7.8-.6.2 0 .4.1.5.3.1.2.2.4.1.5-.1.4-.4.7-.8.6a.5.5 0 0 1-.5-.3l-.1-.5"/>
  <path fill="none" stroke="#21231E" d="M249.1 179.2c-2.6-.4-4-.8-5.3-1.1m21.3 1.1c2.6-.4 4-.8 5.3-1.1m-72-44.9c5.6 7.1 9.8 5.5 9.9-2.5 7.3 8.6 12.9 7.5 13.9-1.6 6.2 11.4 16.1 6 16.3-1 2.7 10.1 17.8 10 18.7-1.6 1 11.6 16 11.6 18.7 1.6.2 6.9 10.1 12.4 16.3 1 1 9.1 6.5 10.1 13.9 1.6.2 8 4.3 9.6 9.9 2.5"/>
</svg>
