<svg xmlns="http://www.w3.org/2000/svg" viewBox="0 0 720 480">
  <path fill="#20603D" d="M0 0h720v480H0V0z"/>
  <path fill="#FAD201" d="M0 0h720v359.5H0V0z"/>
  <path fill="#00A1DE" d="M0 0h720v239.5H0V0z"/>
  <path fill="#E5BE01" d="m615.1 128.2 53.7-3.1-53.7-3.2 51.1-16.9-52.7 10.9 44.9-29.6-48 24.1 35.7-40.1L606 106l24.1-48-29.6 44.9 10.9-52.7-16.9 51-3.2-53.6-3.1 53.6-16.9-51 10.8 52.7L552.6 58l24.1 48-40.2-35.7 35.8 40.1-48.1-24.1 44.9 29.6-52.6-10.9 51 16.9-53.7 3.2 53.7 3.1-51 16.9 52.6-10.8-44.9 29.5 48.1-24.1-35.8 40.2 40.2-35.8-24.1 48.1 29.5-44.9-10.8 52.6 16.9-51 3.1 53.7 3.2-53.7 16.9 51-10.9-52.6 29.6 44.9-24.1-48.1 40.1 35.8-35.7-40.2 48 24.1-44.9-29.5 52.7 10.8z"/>
  <circle cx="591.3" cy="125.1" r="22.9" fill="#E5BE01" stroke="#00A1DE" stroke-width="2.27"/>
</svg>