<svg xmlns="http://www.w3.org/2000/svg" viewBox="0 0 720 480">
  <path fill="#FE0000" d="M0 0h720v480H0z"/>
  <path fill="#000095" d="M0 0h360v240H0z"/>
  <path fill="#FFF" d="m224.9 132 45.1-12-45.1-12L258 75l-45.1 12.1 12.1-45-33 33.1L180 30l-12 45.1L135 42l12.1 45.1-45-12.1 33.1 33L90 120l45.1 12-33.1 33 45.1-12.1-12.1 45 33-33.1 12 45.1 12-45.1 33 33.1-12.1-45.1 45.1 12.1-33.1-32.9zM186 142.4l-6 1.6-6-1.6-6-1.6-4.4-4.4-4.4-4.4-1.6-6-1.6-6 1.6-6 1.6-6 4.4-4.4 4.4-4.4 6-1.6 6-1.6 6 1.6 6 1.6 4.4 4.4 4.4 4.4 1.6 6 1.6 6-1.6 6-1.6 6-4.4 4.4-4.4 4.4-6 1.6z"/>
  <circle cx="180" cy="120" r="51" fill="#000095"/>
  <circle cx="180" cy="120" r="45" fill="#FFF"/>
</svg>
