<?xml version="1.0" encoding="utf-8"?>
<!-- Generator: Adobe Illustrator 27.0.0, SVG Export Plug-In . SVG Version: 6.00 Build 0)  -->
<svg version="1.1" id="flag-icons-lk" xmlns="http://www.w3.org/2000/svg" xmlns:xlink="http://www.w3.org/1999/xlink" x="0px"
	 y="0px" width="720px" height="480px" viewBox="0 0 720 480" style="enable-background:new 0 0 720 480;" xml:space="preserve">
<style type="text/css">
	.st0{fill:#DF7500;}
	.st1{fill:#005F56;}
	.st2{fill:#F7B718;}
	.st3{fill:#941E32;}
	.st4{fill:#F7B718;stroke:#000000;stroke-width:2.126;stroke-linejoin:round;}
	.st5{fill:#F7B718;stroke:#000000;stroke-miterlimit:20;}
</style>
<path class="st0" d="M114,30h84v420h-84V30z"/>
<path class="st1" d="M30,30h84v420H30V30z"/>
<path class="st2" d="M0,0h720v480H0V0z M30,30v420h168V30H30z"/>
<path class="st3" d="M228,30h465v420H228V30z"/>
<g id="A">
	<path id="B" class="st4" d="M651.6,399.6c0,0,4.1,8.3,8.6,11.7c6.7,5,20.4,4.7,26.2,10.5c7,6.9-0.4,16-0.5,16.8
		c-0.2,1.6,0.3,3.2,0.4,4.8c0,0-4.7,0.1-6.7,0.4c-3,0.5-4.1,2.9-9.7,2.5c-13.9-0.9-13.3-13.4-14.1-24.1c-0.7-4.1-2.3-9.4-3.2-13.5
		C651.8,405.2,651.6,399.6,651.6,399.6L651.6,399.6z"/>
	<g transform="matrix(-1 0 0 1 1585 0)">
		<path id="B_00000016763362587977806810000005074272323543875732_" class="st4" d="M269.4,399.6c0,0-4.1,8.3-8.6,11.7
			c-6.7,5-20.4,4.7-26.2,10.5c-7,6.9,0.4,16,0.5,16.8c0.2,1.6-0.3,3.2-0.4,4.8c0,0,4.7,0.1,6.7,0.4c3,0.5,4.1,2.9,9.7,2.5
			c13.9-0.9,13.3-13.4,14.1-24.1c0.7-4.1,2.3-9.4,3.2-13.5C269.2,405.2,269.4,399.6,269.4,399.6L269.4,399.6z"/>
	</g>
</g>
<g transform="matrix(1 0 0 -1 0 600)">
	<g id="A_00000074419942769747759250000006197185994397303719_">
		<path id="B_00000125594795482350227580000018211864728192345505_" class="st4" d="M651.6,80.4c0,0,4.1-8.3,8.6-11.7
			c6.7-5,20.4-4.7,26.2-10.5c7-6.9-0.4-16-0.5-16.8c-0.2-1.6,0.3-3.2,0.4-4.8c0,0-4.7-0.1-6.7-0.4c-3-0.5-4.1-2.9-9.7-2.5
			c-13.9,0.9-13.3,13.4-14.1,24.1c-0.7,4.1-2.3,9.4-3.2,13.5C651.8,74.8,651.6,80.4,651.6,80.4L651.6,80.4z"/>
		<g transform="matrix(-1 0 0 1 1585 0)">
			<path id="B_00000038376206970471749930000015020992286605872810_" class="st4" d="M269.4,80.4c0,0-4.1-8.3-8.6-11.7
				c-6.7-5-20.4-4.7-26.2-10.5c-7-6.9,0.4-16,0.5-16.8c0.2-1.6-0.3-3.2-0.4-4.8c0,0,4.7-0.1,6.7-0.4c3-0.5,4.1-2.9,9.7-2.5
				c13.9,0.9,13.3,13.4,14.1,24.1c0.7,4.1,2.3,9.4,3.2,13.5C269.2,74.8,269.4,80.4,269.4,80.4L269.4,80.4z"/>
		</g>
	</g>
</g>
<path id="C_00000166639277216747380860000007058314723613745316_" class="st5" d="M582.7,360.8c0.3,11.4,10.2,2.8,16.8,3.1
	c8.8,3.4,21.4-2.9,9-10.9c-4.2-2.8-3.4-11.5-2.3-14.8c6.6-4.8,13-6.3,11.8-16.7c-21.1,3-14.3-21.1-8.5-40.5
	c9.8-30.4,11.5-44.8-6.9-63.9c17.1-11.1,18.4-34.3-1.2-43.1c-12.6-13.7-70.8,12.5-67.9-17.7c-6.9,1-5.9,9.1-3,14.3
	c-12.2-7.4-10-20.1-0.2-21.9c-12-7-17.1,2.1-18,8.2c-23.5-15.5,18.8-38.9,17.4-14.5c9.9-1,3.5-14.4-3.6-15.9
	c14.5-5.3,21.9,18.5,12.5,24.9c15.6,6.6,13.4-17.2,9.8-23.8c12.5,2.4,15.7,18,9.7,23.2c10.5,1,16.4-9.7,9.3-18.5
	c12.4,8.4,7.5,25.4,27.7,30.5c-4.6-4.9-3.8-11.1-6.9-16.3c33.8,41.5,50.5,6.7,31.9,6c-16.3,27.8-36.4-51.7-101-32.1
	c-19.2,4.6-29.8,28.9-14.6,42.5c-4.9,5.7-5.6,17,1.1,21c4.3-21.5,32,5.9,57.2-5.4c22.6-9.7,59.6,6.9,39.3,30.1
	c-4,3-6.6,3.5-19.9,3.5c-15.4-1.1-70.2,8.7-86.5,2.5c15.3,6-6.9,10.9-13.6,5.2c0.5,3,1.5,4.2,3.1,6.7c-3.2-1.3-6.3-3.5-9.1-5.1
	c0,2.2,5,8.1,8.9,10.1c-8.5-0.3-13-3.3-17.4-6.9c-0.9,4.3-3.8,8.1-7,11.5c0.3-5.7-7.9-11.7-8.2-16.4c7.2,11.1,12.4,17.7,14.1,1.2
	c2.6,3.6,7.5,8.3,12.3,8.1c-2.9-4.1-4.8-7.1-5.1-11.5c2.3,2.2,4.9,3.8,7.5,5.6c-0.2-2.3-0.7-4.4-0.6-6.9c3.8,6.2,14.8,7,19.9,2
	c-9.1-5.7-23.9-2.1-29.2-13.3c-1.6,2.6-2.7,4.4-4.5,6.7c-0.4-0.9-1.2-2.8-1.6-3.7c-0.7,2.8-2.1,8.5-2.7,11.3
	c-3.5-1.8-9.1-5.3-10.6-9.3c-1.2,16.5-16.7-5.1-17.1-6.9c-0.6,3.9-4.8,10.4-2.6,14c-2.6-1.4-5.2-5.5-7.1-6.9c-2.4,6.6-5,5.7-6.1-1.1
	c3.8,10,3.8-1.1,6.2-4.9c-0.1,2.9,2.3,7.2,4.5,9.7c1.8-4.2,4.8-10.4,4.3-14.1c6.5,10,17.3,24,17.2,6.2c4.7,9.7,14.1,17.4,12,0.8
	c-8.5-15.6,0.7,16.9-18-11.5l-1.6,10.9c-3.4-4.5-11.4-9-12.5-16.2c2.7,3.7,5.6,8.7,11.6,13c0.1-1.5,2.1-11.7,2.2-13.4
	c2.7,8.4,15.8,27.7,12.8,5.6c5.4,8.6,11.1,21.1,12.8,3.3c1.5,9.5,10.9,14.8,19.2,14.3c-4.3-21.3-6.8-12.2-15.5-28.4
	c-3.5,13.2-4.3,5.1-10.1-0.9c-0.5,1.4-3.2,8.8-3.5,9.1c-4.3-4.1-8.1-6.3-10.9-11.2c-0.7,1-0.6,1.5-1.1,3.2
	c-6.7-4.6-9.8-12.7-10.3,1.2c-7.2-4.7-13.1-11.9-12.6-14.6c1.4,2.8,11.6,11.7,11.6,11.7l0.6-10.6c1.5,2.8,6.9,7.8,10.4,9.9
	c0-5.3,0.5-11-1-16.1c6.9,8.3,10.2,10.8,9.2-1c2.9,2.8,1.7,2.7,4.5,4.9l1.3-6.7c8.5,13.5,16.3,12.5,15-4.2c1,11.9,1.8,20,14.2,25.3
	c-3.6-10.4,1-19.3-9-27.8c4.7,6.1,13.3,8.1,17.9,6c-4.9-2.2-6.8-11.2-10.9-14.4c-7.6-3.4,7.8-9,6.5-20c-19.8,13.5-11.9,4.9-25.9-5.8
	c-2.7,26.9-17.4-2.9-29.9,0.9c4.5,1.9,2.4,8.7-1.9,8.8c-6.4-1.4-13.6-7.5-19.8-4.9c9.4,12.5-23.4,15.4-29.6,15.8
	c12.7-21.5-30.8-2.5,3.9,26.6c-0.3-1.9-0.6-3.1-0.8-4.5c3.2,2.4,8,5,10.8,6.6c0-1.8,0.7-3.9,1.1-4.8c4.9,9.1,15.5,14.9,16.7,25
	c-6.4-5.9-13.3-7.1-20.6-3.8c10.7-9.5-13.3,0.7-17.3-5.7c0.2,6.5-2.3,14.7-7.7,16.7c5.1,5.6,10.3,1.1,12.6-4.3
	c-0.6,3.4-0.5,6.2-0.2,9.1c2.9-2.3,5.6-4.6,7.2-7.9c0.2,3.3,0.2,8,2.8,9.7c0-2.5,0.7-7.8,4.8-9.1c-1.1,3.7-1.5,7.5,2.2,7.6
	c-0.7-7.6,9.9-6.9,9.3-0.7c-5.5,16.4-31.7,27.8-33.6,46c-8.2,24.4,7.6,54.3,31.6,60.6c-2-6.4-2.5-17.3-1.8-25.9
	c-0.1,20.7,14.1,51.7,3.2,67.4c-3.6,3.5-13.4-4.9-17,0.1c-2.2,2.1-6.4,7.4-6.5,8.3c4,2.7,5.2-1.8,6.9-4.3c-1.4,5.2,0.6,6.2,4.2,6
	c6.5-0.2,3.8-3.9,6.8-5.1c-4.2,8.6,13.3,6.1,17.2,2.6c3.8,1.5,10.9,2.6,13.7,1.2c4.6-2.4,4.9-5.2,0.9-9.8c-6.2-8,18.6-7.1,14.8-20.3
	c-18,7.9-8.9-18.1,0.5-28.4c4.9-6.3,12.3-29.1,13.3-32.7c0.3,11.2-8.3,27.6-15.1,37.7c37.6-6.1,77.1-45.2,110.7-6.5
	c14.5,14,28.6,13,25,37.2c-1.6,14.9,1.1,15-10.8,15.7c-12.8-1.8-9.7,6.1-14.4,14.1c7.7,2.6,8.2-5.1,11.9-8
	C567.9,371.3,582.9,370.9,582.7,360.8L582.7,360.8z M416.6,236.2c-3.2-6.9,0.8-15.9-8.8-7.3c-1.7-8.4,4.3-11.3,7.1-13.5
	c-0.1,1.8-6.4,5.4-6,11.1c3.1-2,7.6-4.8,8.5-4.9c-3.9,18,1.7,11.5,10.8,2.2c0.6,1.6,2.6,5.2,3.6,6.8c2.4-5.1,5-7.2,8.1-11.3
	c2.4,18.8,4.7,7.9,9.5,0.6c-1.5,5.8-4.3,9.5-6.8,14.5c-1.7-3.9-3.2-8.1-3.5-12.3c-5.6,6-5.7,5.4-5.5,13.1c-2.5-2.8-4.2-6-5.3-9.5
	c-4,3.9-10.2,7.2-10.6,12.3L416.6,236.2z M440.1,158c-3.4,0.8-15.9-9.5-21-7.1c-3,1.6-1.7,5.8,1.7,4.7c3.3-1.1,0.5-2.5,0-3
	c5,0.2,3.3,4.8-1.2,4.1c-5.2-1.1-3.4-7.4,2.2-7.4c8.8,3.2,18.1,9.2,24.7,8c-0.5-0.9-3.5-4.3-6.8-6c7.1-1.2,25.1,8.6,33.5,2.2
	c-3-2.8-6.8-3.9-10-5.9c5.4,0,20.4-4.6,23.5-7.3c-4.3,5.4-12.6,7.6-19.8,7.5c3,1.8,5.6,3.6,8.5,5.5c-13.7,6.7-16.7,3-31.2-0.9
	c1.3,1.6,4,4.7,5.3,6.2C446.4,158.6,443.2,158.5,440.1,158z M548.5,362.6c30.6,8.2,5.6-15.1,14.6-23.2c7-5.6,8.3-8.2,7.7-13.9
	c-2.4,2.3-7.6,2.9-10.1,0.9c-4.9-4.6,7-11.2,8.4-19.1c-12.3-12-27.2-27.2-46.7-22.6c3.1,25.9,28.6,34.3,17.4,68.1
	c-1.7,1.8-4.6,1.9-8.9,0.4c-19.3-8.9-19,23.9-6.6,4.1c-3.1,11.5,8.5,7.4,11.2,2.1C535.4,368.3,540,366.3,548.5,362.6L548.5,362.6z
	 M343.6,326.6c3.3,3.3,6.7,5,10.8,0.5c-6.2-2.1-9.2-5.5-10.9-12.3c4.3,6.3,16.6,6.9,15.8-1.7c-0.6-5.8-9.3-5.7-7.7,1.4
	c-12.9-3-8.8-14.1-3-18.8c-3.2-2.6-5.5-4.9-6.4-11.1c16.8,12,10.1-16.4,5.8-0.9c-3.4-1.4-5.1-4-6-7.6c-6.4,2-6,6-11.1,7.3
	c0.6-0.9,0.1-3.4-0.9-3.7c-9.7,1,0.3,13,6.5,5.1c-8.9,15.2,8,25.2-8.8,30.3c1.8-6.9-7.5-7.4-7.3-1c0.5,8.6,11.9,6.8,15.6,1.3
	c-2.1,5.2-5.8,10.4-11.2,11.9c4.3,4.6,8,2.6,11.6-0.6C333.5,338.2,345.1,338.3,343.6,326.6z M385.3,311.7
	c18.1-12.1-12.4-26.3-8.4-42.8c-6.6-7.6-20.4-21.8-21.7-23.1c-5.7-3.3-1.9,4.8-0.1,6.3c-8.2,2.9-6.6,9.1-2.4,13.4
	c-1.4,0-2.7-0.1-3.3-0.1c-1.6,6.8-8.4,6.9-5.4,12.2c7.7-5.5,8.3-4.4,8.9-4.3c12.8,9.6-1.4,11,3.1,21.7
	C366.9,279.6,375.4,327.5,385.3,311.7L385.3,311.7z M339.7,276.3c6.6-6.4-7.5-4-10.8-6.3C327.5,274.3,336.1,279.1,339.7,276.3z
	 M348.2,263.4c-1.2,1.3-5.6,4.2-7.3,7.3C343.1,276.2,348.7,267.3,348.2,263.4z M340.6,269.2c4.6-6.1-10.6-3.7-13.8-6.9
	C323.7,268,335.8,273.2,340.6,269.2z M347.6,259.8c-2.5,1.7-8.3,3.4-4.9,7.1C346.1,265.3,348,261.6,347.6,259.8z M342.7,257.7
	c-6.5,0-10.2-0.3-15.4-3.8C319.1,262.6,345.7,268.7,342.7,257.7z M347.8,255c-3,0.7-5.3,3-3.8,6.2
	C345.9,260.3,347.7,257.7,347.8,255z M343.6,256c4.5-6.5-6.5-4.7-8.7-8.2C318.1,241.9,331.6,261.9,343.6,256z M352,250.7
	c-2.5-0.1-5,0-7,0.5c0.9,1,1.3,2.3,1,3.2C348.6,253.8,350,252.7,352,250.7L352,250.7z M351,246.1c-4.9,1.1-9.2,2.2-13.7,1.8
	C339.1,250.3,354.7,252.3,351,246.1z M350,244.9c6.7-1.7,13.8-8.9,8.6-14.8c-6.7-4.7-10,4.4-5,7.8c-8.1,5.4-20.7,3.4-26.5-0.2
	c9.7-6.5-7-14.6-6.7-3C320.6,249,348.1,246.3,350,244.9z M351.8,238.2c-2.6-40.5-5.7-90,6.3-130.8c-32.6,5.9-24.1,99.4-29.7,130.2
	C335.7,240.7,343.7,241.2,351.8,238.2L351.8,238.2z M492.9,198.9c-2.6-2.7-6-12.1-7.1-15.5c-5.4-4.1-5.9-5.2-9.1-11.7
	c-3.3,9.6-8-1.4-14-5.1c-0.4,5.1-2.2,7.5-5.3,2c-0.1,2.8-0.6,4.4-0.8,7.8c-2.6-1.6-3.3-2.6-6.6-4.5c-1.2,14.8,15.8,27.8,12.8,4
	c0.7,5,4.2,9.6,8.6,14.2c0.6-2.3,1.9-7,2.6-9.3C476.8,188.1,484.3,198.6,492.9,198.9z M395.3,177.1c-5-1-11.1-0.1-15.7-3.2
	c2,18.6,26.2,2.2,24.6,11.7c5.5-1.3,9.7,0.2,14.2,2.5C414.4,177,399.3,177.4,395.3,177.1L395.3,177.1z"/>
</svg>
